<mxfile host="app.diagrams.net" agent="Mozilla/5.0 (Windows NT 10.0; Win64; x64) AppleWebKit/537.36 (KHTML, like Gecko) Chrome/131.0.0.0 Safari/537.36 Edg/131.0.0.0" version="25.0.1">
  <diagram name="Page-1" id="ZI8aEDcwmVwZmSc46TY1">
    <mxGraphModel dx="1238" dy="1152" grid="1" gridSize="10" guides="1" tooltips="1" connect="1" arrows="1" fold="1" page="1" pageScale="1" pageWidth="827" pageHeight="1169" math="0" shadow="0">
      <root>
        <mxCell id="0" />
        <mxCell id="1" parent="0" />
        <mxCell id="1pthjZ1_B0n-7u5q8_Vb-7" value="" style="html=1;shadow=0;dashed=0;shape=mxgraph.bootstrap.radioButton2;labelPosition=right;verticalLabelPosition=middle;align=left;verticalAlign=middle;gradientColor=#DEDEDE;fillColor=#EDEDED;checked=0;spacing=5;checkedFill=#0085FC;checkedStroke=#ffffff;sketch=0;" parent="1" vertex="1">
          <mxGeometry x="40" y="750" width="20" height="20" as="geometry" />
        </mxCell>
        <mxCell id="1pthjZ1_B0n-7u5q8_Vb-8" value="Gradually" style="text;html=1;align=left;verticalAlign=middle;whiteSpace=wrap;rounded=0;" parent="1" vertex="1">
          <mxGeometry x="80" y="775" width="80" height="30" as="geometry" />
        </mxCell>
        <mxCell id="1pthjZ1_B0n-7u5q8_Vb-9" value="How quickly did the flooding begin?" style="text;html=1;align=left;verticalAlign=middle;whiteSpace=wrap;rounded=0;" parent="1" vertex="1">
          <mxGeometry x="40" y="720" width="220" height="30" as="geometry" />
        </mxCell>
        <mxCell id="1pthjZ1_B0n-7u5q8_Vb-10" value="" style="html=1;shadow=0;dashed=0;shape=mxgraph.bootstrap.radioButton2;labelPosition=right;verticalLabelPosition=middle;align=left;verticalAlign=middle;gradientColor=#DEDEDE;fillColor=#EDEDED;checked=0;spacing=5;checkedFill=#0085FC;checkedStroke=#ffffff;sketch=0;direction=south;" parent="1" vertex="1">
          <mxGeometry x="40" y="780" width="20" height="20" as="geometry" />
        </mxCell>
        <mxCell id="1pthjZ1_B0n-7u5q8_Vb-11" value="S&lt;span style=&quot;background-color: initial;&quot;&gt;uddenly&lt;/span&gt;" style="text;html=1;align=left;verticalAlign=middle;whiteSpace=wrap;rounded=0;" parent="1" vertex="1">
          <mxGeometry x="80" y="745" width="80" height="30" as="geometry" />
        </mxCell>
        <mxCell id="1pthjZ1_B0n-7u5q8_Vb-23" value="Investigation - populate table" style="text;html=1;align=left;verticalAlign=middle;whiteSpace=wrap;rounded=0;fontStyle=1;fontSize=20;" parent="1" vertex="1">
          <mxGeometry x="40" y="40" width="405" height="30" as="geometry" />
        </mxCell>
        <mxCell id="1pthjZ1_B0n-7u5q8_Vb-24" value="" style="html=1;shadow=0;dashed=0;shape=mxgraph.bootstrap.radioButton2;labelPosition=right;verticalLabelPosition=middle;align=left;verticalAlign=middle;gradientColor=#DEDEDE;fillColor=#EDEDED;checked=0;spacing=5;checkedFill=#0085FC;checkedStroke=#ffffff;sketch=0;" parent="1" vertex="1">
          <mxGeometry x="40" y="150" width="20" height="20" as="geometry" />
        </mxCell>
        <mxCell id="1pthjZ1_B0n-7u5q8_Vb-25" value="No" style="text;html=1;align=left;verticalAlign=middle;whiteSpace=wrap;rounded=0;" parent="1" vertex="1">
          <mxGeometry x="80" y="270" width="40" height="30" as="geometry" />
        </mxCell>
        <mxCell id="1pthjZ1_B0n-7u5q8_Vb-26" value="Does this location have a history of flooding?" style="text;html=1;align=left;verticalAlign=middle;whiteSpace=wrap;rounded=0;" parent="1" vertex="1">
          <mxGeometry x="40" y="120" width="330" height="30" as="geometry" />
        </mxCell>
        <mxCell id="1pthjZ1_B0n-7u5q8_Vb-27" value="" style="html=1;shadow=0;dashed=0;shape=mxgraph.bootstrap.radioButton2;labelPosition=right;verticalLabelPosition=middle;align=left;verticalAlign=middle;gradientColor=#DEDEDE;fillColor=#EDEDED;checked=0;spacing=5;checkedFill=#0085FC;checkedStroke=#ffffff;sketch=0;direction=south;" parent="1" vertex="1">
          <mxGeometry x="40" y="275" width="20" height="20" as="geometry" />
        </mxCell>
        <mxCell id="1pthjZ1_B0n-7u5q8_Vb-28" value="Yes" style="text;html=1;align=left;verticalAlign=middle;whiteSpace=wrap;rounded=0;" parent="1" vertex="1">
          <mxGeometry x="80" y="145" width="50" height="30" as="geometry" />
        </mxCell>
        <mxCell id="1pthjZ1_B0n-7u5q8_Vb-29" value="" style="html=1;shadow=0;dashed=0;shape=mxgraph.bootstrap.radioButton2;labelPosition=right;verticalLabelPosition=middle;align=left;verticalAlign=middle;gradientColor=#DEDEDE;fillColor=#EDEDED;checked=0;spacing=5;checkedFill=#0085FC;checkedStroke=#ffffff;sketch=0;" parent="1" vertex="1">
          <mxGeometry x="40" y="305" width="20" height="20" as="geometry" />
        </mxCell>
        <mxCell id="1pthjZ1_B0n-7u5q8_Vb-30" value="Don&#39;t know" style="text;html=1;align=left;verticalAlign=middle;whiteSpace=wrap;rounded=0;" parent="1" vertex="1">
          <mxGeometry x="80" y="300" width="90" height="30" as="geometry" />
        </mxCell>
        <mxCell id="1pthjZ1_B0n-7u5q8_Vb-31" value="Describe the flooding history" style="text;html=1;align=left;verticalAlign=middle;whiteSpace=wrap;rounded=0;" parent="1" vertex="1">
          <mxGeometry x="80" y="175" width="630" height="30" as="geometry" />
        </mxCell>
        <mxCell id="1pthjZ1_B0n-7u5q8_Vb-32" value="" style="rounded=1;whiteSpace=wrap;html=1;" parent="1" vertex="1">
          <mxGeometry x="80" y="200" width="510" height="60" as="geometry" />
        </mxCell>
        <mxCell id="1pthjZ1_B0n-7u5q8_Vb-33" value="flood history" style="text;html=1;align=left;verticalAlign=middle;whiteSpace=wrap;rounded=0;fontStyle=1;fontSize=20;" parent="1" vertex="1">
          <mxGeometry x="40" y="90" width="405" height="30" as="geometry" />
        </mxCell>
        <mxCell id="1pthjZ1_B0n-7u5q8_Vb-34" value="speed" style="text;html=1;align=left;verticalAlign=middle;whiteSpace=wrap;rounded=0;fontStyle=1;fontSize=20;" parent="1" vertex="1">
          <mxGeometry x="40" y="680" width="405" height="30" as="geometry" />
        </mxCell>
        <mxCell id="1pthjZ1_B0n-7u5q8_Vb-35" value="" style="html=1;shadow=0;dashed=0;shape=mxgraph.bootstrap.radioButton2;labelPosition=right;verticalLabelPosition=middle;align=left;verticalAlign=middle;gradientColor=#DEDEDE;fillColor=#EDEDED;checked=0;spacing=5;checkedFill=#0085FC;checkedStroke=#ffffff;sketch=0;" parent="1" vertex="1">
          <mxGeometry x="40" y="465" width="20" height="20" as="geometry" />
        </mxCell>
        <mxCell id="1pthjZ1_B0n-7u5q8_Vb-36" value="No" style="text;html=1;align=left;verticalAlign=middle;whiteSpace=wrap;rounded=0;" parent="1" vertex="1">
          <mxGeometry x="80" y="605" width="40" height="30" as="geometry" />
        </mxCell>
        <mxCell id="1pthjZ1_B0n-7u5q8_Vb-37" value="Is anyone at the property vulnerable?" style="text;html=1;align=left;verticalAlign=middle;whiteSpace=wrap;rounded=0;" parent="1" vertex="1">
          <mxGeometry x="40" y="400" width="630" height="30" as="geometry" />
        </mxCell>
        <mxCell id="1pthjZ1_B0n-7u5q8_Vb-38" value="" style="html=1;shadow=0;dashed=0;shape=mxgraph.bootstrap.radioButton2;labelPosition=right;verticalLabelPosition=middle;align=left;verticalAlign=middle;gradientColor=#DEDEDE;fillColor=#EDEDED;checked=0;spacing=5;checkedFill=#0085FC;checkedStroke=#ffffff;sketch=0;direction=south;" parent="1" vertex="1">
          <mxGeometry x="40" y="610" width="20" height="20" as="geometry" />
        </mxCell>
        <mxCell id="1pthjZ1_B0n-7u5q8_Vb-39" value="Yes" style="text;html=1;align=left;verticalAlign=middle;whiteSpace=wrap;rounded=0;" parent="1" vertex="1">
          <mxGeometry x="80" y="460" width="50" height="30" as="geometry" />
        </mxCell>
        <mxCell id="1pthjZ1_B0n-7u5q8_Vb-42" value="" style="rounded=1;whiteSpace=wrap;html=1;" parent="1" vertex="1">
          <mxGeometry x="80" y="515" width="110" height="30" as="geometry" />
        </mxCell>
        <mxCell id="1pthjZ1_B0n-7u5q8_Vb-43" value="vulnerable" style="text;html=1;align=left;verticalAlign=middle;whiteSpace=wrap;rounded=0;fontStyle=1;fontSize=20;" parent="1" vertex="1">
          <mxGeometry x="40" y="360" width="405" height="30" as="geometry" />
        </mxCell>
        <mxCell id="1pthjZ1_B0n-7u5q8_Vb-44" value="How many people?" style="text;html=1;align=left;verticalAlign=middle;whiteSpace=wrap;rounded=0;" parent="1" vertex="1">
          <mxGeometry x="80" y="490" width="630" height="30" as="geometry" />
        </mxCell>
        <mxCell id="1pthjZ1_B0n-7u5q8_Vb-46" value="" style="shape=image;verticalLabelPosition=bottom;labelBackgroundColor=default;verticalAlign=top;aspect=fixed;imageAspect=0;image=data:image/png,iVBORw0KGgoAAAANSUhEUgAAAssAAABtCAYAAABX0iwBAAAAAXNSR0IArs4c6QAAAARnQU1BAACxjwv8YQUAAAAJcEhZcwAADsMAAA7DAcdvqGQAACcTSURBVHhe7d0PcBRVvi/wr7d8ZRSs8Ep3h3pQJEWUUIIkijB3YTfzDD6zGA2Pf3FBDQtoBCJhkQWXPzd3ZQElXP+ARoRVlrCKRfjjSyS7hGcohruwTNhoBqNFEDWhQlXmCUWmFiTWtWreOTMnSXdP92QmM5N/fj9VXenuTM90nz59zq+7T5++ySeAiIiIiIiC/Iv6S0REREREBgyWiYiIiIgsMFgmIiIiIrLAYJmIiIiIyAKDZSIiIiIiCwyWiYiIiIgsMFgmIiIiIrLAYJmIiIiIyAKDZSIiIiIiCwyWiYiIiIgsMFgmIiIiIrLAYJmIiIiIyAKDZSIiIiIiCwyWiYiIiIgsMFgmIiIiIrLAYJmIiIiIyAKDZSIiIiIiCwyWiYiIiIgsMFgmIiIiIrLAYJmIiIiIyAKDZSIiIiIiCwyWiYiIiIgsMFgmIiIiIrLAYJmIiIiIyAKDZSIiIiIiCwyWiYiIiIgsMFgmIiIiIrJwk09Q433SZ599BpfLhbq6Opz/8ks0NzfjyuXL+O7GDchVv+mmm3DbrbfijjvvxPDhwzHq7ruRnp4Ou92Oe++9V30LEREREVHk+mSw7KqpwYEDB1BZWYmLFy+quZEbMWIEsrOzMWvWLNgnTlRziYiIiIjC06eC5UOHDuHtHTtw6tQpNSd2Jk2ahEXPPosZM2aoOUREREREofWJYNnpdGLjpk1xCZKNZNC8ds0aOBwONYeIiIiIyFyvB8srV63C9u3b1VTPWbx4MbYUF6spIiIiIqJgvRYsywf3lhQU4NNPP1Vzet59992Ht0pK+CAgEREREZnqlWD5r0eO4Nfz5uH6d9+pOb1n0G23YXdpKab+8pdqDhERERFRQI8Hy/IhvjwRKPc1e0TAzIf/iIiIiEirR4NleUV59uzZaqrv2b9/P68wExEREVGHHguWZRvlhx56KLqmF3NKUP0bO4aoSa3WmmJMWVqmprpHNsn4+OOP2YaZiIiIiPx6LFj+RUZG9A/zPXcYl15yIFFNanlPrMWw7G1qqvvkQ3//eeKEmiIiIiKiH7N/UX/jSnYP15u9XkRCrqdcXyIiIiKiuAfL8oUjMetH+Uob2tSo0dUrbjUWPbm+cr2JiIiI6Mct7sGyfDNfzHzgQasaNfr+emyD25iud5/gReOZKlQddcNjdcZB1MO8X9eIPFkF9yVmSiIi6pvi2mY59t3ElaD2n3lIVVNaDe/djvGL1USMxKY7OS8aTtShRU1FakiKHWnDAM8nLpy7pmZiCEZPTIMtQU12yYOK/MmYK042/CYUofqjlbAPCkz2PEOaDB4N+/02hL051H0/tKHxi7NA0kQkmzX+71IbvOddaBzk8OfLaHg+XIhJeWUid0oTUXSsEqsmMBcQEfVX3vNO1GkDnqHpcIzqVmXTp8Q1WH44KwunTp1SU7HQs8HypEmTcLSqSk11Vw2Kb5+C9WoqUjm7LmDvbKAs7y4s+FDNRA52nXsfueEGK5fKMHf0QlSoSSm/rBmvTu2tDGxIk+nv4qs9ubCpSYq1Nrj3F6N0fwXK/9oggtMI84/gObETWz/Yh4r3atAopouO/VMEtoH/dY/HkKeFpw/g0mtZpg/wEhFR3+fafDumbFAT0rpqXHthoprov+LWDMNVUxPjQLnnyfWX29HvDU7EUDUaYMOQQbeocRr4vGj4aAt2+gPl7mn8+wpsU4FybCQg8Q41qtgSE8BcSUQ0cOSMGBiXweIWLB84cECN9W8DYjsSs1C4Jw/JajL5yVeRl8Hb3dSbEpG1/H3MG6kmR+bhtQUONsUhIurHEm42BMc3D4xSPW7BcmVlpRqLJQ9ar6tRgzarJ/+iFP122JC2YSM2GYens9T/lYfzgz8jhqzk2GS05OklqG9pxqXmb1G/PacjcCbqNSNyUFL7rciTzbjsLkHOCDWfiIj6paEj7GpsYIlLm2X5tr6fTZqkpmKpEJXNG+EIatTohXP1cGS/qSZj7O+nTsX+rX5ntmBwpqYlc8h2Pcb2nZ1tTtsuuuFqDJwpJAxNh92iIX2b14vv1bh0S2Ki+VW8Ni8az9ehqf3k49ahGH1PKmzdfBjQuH5pYv0SImyz3OZtQoO7saMnlCHJ6UgdYbH+ZvwPtbk6tilh6GikjbSJM+DAdCjG345kWUmf7rcgMVGutXxI7izqWm745wYe4gxvayJKC7Evvf4fb8H/WfwACj7yzxVEkOp6C/9b02bZND+IdPNeD6z96deGY+Yr/lG/VQebsUxTJt4ySCwv00SzjN/NiUiUeadjH2geTu1YP+UW8VmLZNDmIwwZDfs4sQ+sfstE25UGuD9vCXQ9KfJ0+n2pSLxZLK9fAbV/zOm+A0OQlJaKZKvPR5IOIYnvudiAuvZtF0LmQavfFWnd8FkdAlku0geEjcRvaPKvyIRIH5Vkue+s9rMuPcV32O9J0m+Tbp3lR8RxMiK8le6pfRVtvhTfEJO0xPUmuGtVudCRv+VEF8S6er4+i3Ptvy+XvVcsa/h9Y/1hdawG1TPt5YKR1XZ07HOxHhliPQL/1dNuK27F0NRxSA0zM7d5RL5oaM8XMrktyk+rfaj7bZGvxqch2XLfGpikdVd1ayzrj7C33ajjOAhMdlUHevY/gZQFnU9IBZ67GgBNMWSwHGt//OMffYMGD47DsMZ3vFX9iE6r7/jvzD4fm0FuT8zVFOt/52WX+oeZFt++pzSfHTzXt9tZ7lv9SIpmXmAY+cga376GG2q5dsHL72tW/2r3Xy2+46/P9Y3RfJd2GDNjjW93TYv6cNdaa3f45k+0Wr8jvs3a+U/tE2sY7EZDuW/zU2N0y3cM42b6VpedE3s+BP82LfDdn2KyfEq2b8l2l/XyLcd9W61+e/AY34y1pb7TXSaHS7+dg1/0HRHpMmecdl5gGPPUVt/py2oxE91Ji5ayueafDxpM8oNkzKMhhs01FsuIfN1aXeyb0bHNnb9lXL85ZcEJapWPBo2b69vx+vP6eWbHUJM4TmaYpJvY/6vfeNE3RzvPIh+2fr7P/DvEMOapYl950PEmRJAOZlrFMbLjNzMtj0eZB+e8bpJ/jb/7hyO+uu1mx7XF8iG1+s6VrdFsg+H7Xi73nbumPqoRtJ//eMS373fZvpGaef5B7lO3TMtW32mLskiWQ+VNge8101P7Kup8Gau0/PNxX7lZWsr8LcoEk61VWn11f17ie8SsbByc4nvkuR2+45qDoe71ybrPjDTbppZy33zNZwYNft53xCKDBR/753znxPp0ltXFvtPqsx1kmTx/fPC2imHkI0t8O05Z52Z/vjCpL/1Dynjf/NeP+L7RLh50HJVb5EmRVr/bZ7qvOon8vN06re+fv1WX1p1iU39EvO3tull/hlOu90dxCZYLCgp0iRW7oXeCZbk9MWdSQFszBrtdDCkLfPt0FUpXwfI53+7ZFgeTYXjkjboQBXDAN4eWhKjkxZCSoi/wTIKUb/7yvC9T+xmLYcyict83ahmda6KgsSogNMPIZ0qDC7qGUt8M04LNOGT7tvordyvGwq6L4UFRQZgUut1NC2OhZT3EMVh+MNOw7uEHy13mI+NgOIZuiHUxr6AsBrN8GNY6ZPperDYUTBGkQ5DaYt8k3WethzG/PaKvsCLYZ3LIFGnW1fEc0OgrX2R18qgZHnzRd9xQaYefD8Ugyq7Vv800/1/7EFS+BfTUvoo2X/ZYWopAbH5Zo1pS45oo758Jo7wXAdHmGpU73Fv1eXLSVl9d4D8dblSv0S//G0Pe1DBuxySR5vogWB8sh3csi+39U/AJQqtzTVjl56CUJb7y9vSO8DiyKrt91+p8W8OpW7Vp3SH6+qNb2y5FUX92Va73V3Fps3z+yy/V2MDQ77bHU4bVb1TBqya70vjeWhT8Vd9Pgu0eBxwZqfqmEROKUDQ/LfRtm7PbsDBvT+heEzyekL0ytH2yBQtzd8KlpkNpfO8JLNxc03FrKcCDiuVzsf5E130/eD4owCMvOTXLN6F0dQGqdIvakJoh0uMe/a0k+7oi5I/r+vZX2M6sx5o/N6iJgOjTopedqQlr3YNcqsD6lV3ko1Da3Nj2wno4u9v9h+BP+67ysl8NiqctROnXatJMJOlwfx6WTVfjXWh8uwBbT3R/j7s2rMaeL9SEpTa4X1mAue81qekQzmxBdn4U+02UXdve7qIHIpPyrcf2VbT5sifTUjbfW70NVbqKwIuqddkoaO9zPxSPE+vnFKDikhgf58Dj4wKz/c6WwXlWjSsNX+hfDJYzKT3sbiDdIs0t10ik+ZI54RzLYnuXZmP9Mc3x0ObE1gXbDPszCfZMB+ztDxf72ZD70irkGHroCZsou+euM9a5sh6aiTWGutWUSuuyi2q6O4z1R7e3PZr6M9jo4QOgCYYQl2C5ublZjQ0MfXN7kpCz4X2c/LwZX9UewKbpSWp+gOftE6gLqw5tgnO/ti/pNKyqFN/pOozKyn/gq6vfor7yFcwTwWLR5qVdvMjEi4rta/UHpy0LRQfF94g0vNRcj+rthXCEPHaasG/jet132DIKUXKs3v8g2KXPq1HynEMXxMsKf6em4G47tg3LtZXByDyUnGzGtX/+0z9cOrYRWZov8Gxd27n8106UHVXj0riVqGy+gNpKkR6uC7jWUo/KLXniRKIIm56b2HV7LyObA4XbD6P2QjPqj5WgMEOfGK6/ujSVY3RpYXvsrcDnmv+BkscC8wJkm2U5v314CzlmfS7ft7TjMwdXqHmKbLPcuXwzCu9T/7BiS4XjyUJs2pCFpMFqXgjuA8Uo05bVE/KxS+zDy3IfftuMk7vyEeoxEu//3Yn1Z9SEJPNhZT0uXxXL+/N0kS4PBDOmvQ2OFw7gq28Deejat/XYu0j7jEEVCrZUdH2CGlY62JCztAhpI3NQtEvmlW878u61xr+hZI52xT0oPaM/wTLy5xl5LJsefzUor+kicPu6DOt/rwlgRR5edfBCYF+I4bL7feRr+9w+WoAtH4VOieTpG7H3ZL0ouw6jRJeO7UR6P1eCytoLqD/5vkn5dhSnO36i5/ZVtPkynml56cI/cHCD4eFtz044azsrgrYTW7HkHe0G2JD1+wP+8uiSLOcOGo8LD05/Lj+fBsectMAsPzeqPtHmmyY0nHKrcSkLWeNDHmDmRk5EztMrRZqPE2smtcG5/Xldmic/WYKTjWrfXm1G9UtZ6rOSB9v+badYu4C2U0dRrN1c+aD7VXEclB9GtVuktzie9q7LQeqcTSiarc9jRjKdD4r86C/zZNlryLeed/6A0lD1kL/O1qb1RuRog1Z5EvhaFxe5Iqg/urvtUdWfkqH3C6u2zf2OusIcUz/96U91l+FjN2RbtFdr8R15xuzzsRnk9sSc8TZPhM0wMt8w3AS7cdz3ou42lfbWYahmGMZbPZN9Lzqtbp51oXmfvg3o4Jm+3V+p/2nI23WWzTCCbve9aHJ764bv9Mv6W7WdbehafeWLNMsPzvRtdat/aRjXoWN5434Rv2/e9CccxrRN8S3/i+HLvir1zdB9RnP7Meq0aBdGm/UunH5Zu7ym2YWRye3LzN+W+775L/V/DevbdXW+rZO03zHZdB8a21F2HkOtviO/0cwXw5KK4J3YWrFE95lQ+XCk6S3lRt/uGZrltekaQTpEzJgvtPvb+Lspz/uOGG7lf/PnmfrPBOUXPX06m+RhyZiPNWkZ1HRgRqmh6dQ5344czf/lsKhcn96hyrce21fR5ss4pOWDxuYQN3zH/11/+7zzuDKWjYN9M/5k0kyjSZTj/rasx30t2pYBxnynPV5aj/iWa/+XY9zHekHbIdJihqjTglLjcrlvifZzQdsriW1eq93mlI7yKeh3nhLrFc4xaMwTQXlWMv5uqHpI7Ie95mk937Lejq7+6N62R1l/Soa0s6wr+pm4XFn+7oZ62jPmnLhqerW0FS0fqNE4iN/2dJcDeY9oz/KFBDscv1LjEUkSZ8xq1M+N4uzxGJ+7Atv2V8F9MazL035tDW7dWwKxbCke193uCUjInAarl6C7T5R1XBWQshbPM7manQD708t03+GpOB1Yznsax9/zzwr42TTYk7zwevXD96l2TFMfkTynzgXOyP+HOPv3z1HObkH2+Acwc/k2lB11o9Gi68LwPI5pDxpuTI50ICdTjRtEnRZ9wbgibPpDDpIjubrgaUKd9krFuFw4tLeAlbRfTNNcUdJqhLuj5w8pHzkZwTeEEydmIVeNGxnTflpGushbxnw0BKMf1F5dqkBdg8Xx0p100GkTv+dBwxmn4YpeF36VA4fh1nLyJDFPjXfNDWeZLiXwP8W+0KeDGO4YDcfP1EekD904Z5EUjscchq4rU5Fm6DwpP8ehv4WfMBqjLTpY6rF9FXW+jENa5k2DviYQ5UHG42rcoK0Op7VlIwpR+CuTq6kjcrH33D+wa5lD3wOIsSnGhy7UtV8G/cKFnWpUSvtfaZF1Tzp9E956Li2o2Ya3xolSNS7ZZ/wrko3p5f0eo8frSnM4Pw8cI7bkdP2++LAAY8dPQcG6Pag40wBvmNVbzixjnpUS4FhQpDuWLOsh20o8a7g74ifSetlS7R6swOmzVteWI6s/urXt0dafA1jc+lmmeErErUGvOktAwu1qNCI2ZM3JNxTuolL+606sWTALk8f8BCn2hSj+SBxc6r9WvFf0h0tO2mixVubM57ehtUVbmYjCMdXi1tgdaZioLSTONqFFruAVse6BOQF/X4spw4djmHEY/YSucMcx1Y56WBbmPW2o6jwNqHpnLRbM/DnGDr0L4xdsQcUXXaWGmSFICNrwBNwaHMcJMUiLvmCqA3arTGDlhzZ9G7iUoYY3UCq2JItb3t/LLKwxFEPM0tg2FKPVqF5w2u/Muys4D4lhymp9+9rGKxYJ34108H5dhZ3Ln0C2/S4Mvv0n4vdE3st8FDOXdt5m7tLttwYfa7ckhN2WVHZg36INEMVRM3d0cDoMGz4Fa/6uPuLXCM8VNWqQOKjrhBh6p3ENbUgao0Z1enBfRZsveygtE24fosYM/p9HH9BMT8Noq11helJnbIrR2cTDXattu5aGxzMMF3O6kDPVbqiDAq6KslfLtXqKSXoNR0qerjSH06MKgAkPY5nxtfxf16B0awHmZj6AYT8Zi5nLxXboygsTVi/WGClObNSo39nvA3nEWA9NEid7Fl+Req/+1NX1lVXYGUn9IXRn26OtPwewuATLt916qxobGAba9hglTt2IQ1usX1Ti+aIM6+c+gMmLK+J89uiFR/eAg1gnsxLUz1hItMB7TfwRB7v+MZNIJSJrw0G8anYVwE8UJvvXY659Mgo+jOAKX8RikBZ9wX9Tf6PhbYPpvZ0rLQhvD7SizfQqylWRUmaMaR8DEaVDG9xvzsL9abPw/DsVcH7Ri9WQOJ769hWjXtxXkebL3k5LT5P+zl83pGXk6q5k7zvhErlVlIk1mhMW2zTYTa64h2QRjHo80ZXmMnAv3H0gqG1vpyZUvbMC2ZMfRfEZs0IiUnVokg9EGuuhUcmmJwOS8eTGre3fOSrd2Pao68+BKy7B8h133qnGBoaBtj3BEpC26H2cdB/Aq09nWQbNsreFFeE8xd3uh0gLHxuSRqlRPxGcW8YJLWj5So36icJI3m62GZpRyId0Mh1hDJrO2QelIX/PSdQffAX5D1sFzU0ozVsR+qn6qMQgLfqrYalI15bvx1w4a3JlrfHsCYsrrEkYPUeN+jnhPq9GNdrcLpSrcT1j2osUnWCWZ4KH5DAeXuxK25k3sGR1lf5KzciJgYfNtryLg3tWRtCMIkrDkg1X3wNP05ttu35IDu+lGFHrwX0Vbb7s7bQ0lo0/wDzYD2XcNORr7mJ53qsRwd051HW8MEv8zJMTdQF1NGwjdGsc6KXJNI0MQ6Lm1uuILGwqP4nqXUXINfRo1MHfG0UxnN2Il/WLpCNJPixtTOvzjZZXXr2X9afsDptVcNsNkW57LOpPzYPhYT383U/EJVgePny4GhsYBtr2WEkcmYX81w6g/uq3/qfUd23IC+q5ouqoy/Kgtw1PVWMBFSfclk03rMok23B9GOB0Wzzp/7Vb33VRZiqS5NH6U5s+2LflicLiMCq7HPINBXwikh/Ox6sH63GtRfaG8S42/Vrf84R8qr6q1jKCjVrUadFvpcL+pDal92D56jI0isq9w0XZq4C2FxctG8ZlaF8n78aa32yBS5sZvTXY9vstIfKyPu0dy983yTPBw6ap0Vd07qr1umDLvq4al9zVqNy+EYWLcpE1cXT4zSiiJoJRXZtIB5btMt92/aB/Yj6eem5fRZ8vezUtjWXjR07TYF+Wzt4rViV0EhzTNentKYfrzzXYpyalxzPsnYFTlIba9Jduhs7daJI+JsMiQ7h+sw322Suxy3UBl5vrcXJvCQqNdw89ooz4TI0beK9bpMfZ06IW0Mi0BeoIY1rL9t2mz7u0oc6lP2VPGxHjAyeSbY9F/XlzAhITE3HLzfKNgxZvcOyH4hIsj7r7bjUWexVle1D2QZlhqEAXPXNGJZ7b0ze0wfX2ts6+hUVmt41yIHdZCSoPbdQHkR82Wd9KvMeOfDXq995W7DC5tdW4f4fuoQ2t5Psf1v2e8+Vik74nm1D28npdIdXxQElCOhxP+2cFnF2LzZZXw73weEwKwes12Lm1Cp72SnCQ7Gc5F4VvHMahDfpCuOLr+DXFiDot+q0EOGYU6tp9ej5YiLH/fSymTHsU2ZljMXjMQn0XXgbJU59BvrbOObMeU2Sb32yxfPYDSBk+Rd+1nIEx7Utf3gqn1Zmfx2N5Uhg5D5oMV8GzMifqg+PvRTCjRuMvCekiP3Xag83bnZa/77nUc2vWruf2VbT5spfTMsGOrBX6YN/s9+WdjRnJY5G91Lwtb7IoCzvDZXEiunK95qQzH47xsTtTTxifoatT3OuKUWrV7MbrgccsIL1YgW3vdT5zk5CYhLTHRBC45yT2PqlmKnUWt++cfyyFK+i7Rdn75jbdia1lPYSdKH4zuA98mdbrX9H+ZmzTL+Jtj0H92XZ+DwrSbsedQ+XzTgUoPW9xotHPxCVYTk9PV2OxV7W5AAvyFxqG9ZbBVyzEc3v6gsb9BZi7ci1m3jUWc0WQ2NB+APzghfsTt75d55xU60As0YFpusK4BuszH8DczWWoOuGE80QFdi59FFMWlFle0cO4eSjSPmDnKcOCzEdR8HaFWF58x9EyFOdlY4Gu/8ocLJveXgklImv+Rl2FVrF4ir/grzovKkr5NK+nAc79W7DAPh4pc94wFIKiAFw+F8+vm4WU8U9g29GGzgL4iht1n+tvmeWOsmqmEQNRp4UVF458VING/5PNTXCfj7xSrqqsEPlELu9BwxceyzsF3TYuH5vWGfvfbYLrmNjuM2GcoNyRhcKXcg13AsS6+vOh2KdqjiVj2steUTKeQPH+9nTzovGsyM/LZ2HsXZOxfH+sTpqCmxWUV2kCmh8CJ0e6doWfN8a1LWzanH/TnXi4Nz+KyXlbUCb2Q+DpeJGHPtqJ52eORYrj+eherNAdPbmvosyXvZuWwcF+x+8flcdFFco2P4EHMmWf1R44d69A9l13YcF+w9Ey0oFc3RVyjScd+NdY3vZIzMK8l/S9mBT4y0BZTwX2ree8U6z3QowffxfmGgPS6zUo/vUTWLP4AdyfvRalMp3VB9ounUad7madDekp+hKjg8hTUybJPFUVKHvFPirInmIoe7OQ39FLVXA95NowBQ90pLUTFW8XYOYcfT/6aesehyNW6detbY+2/nRj53wRIKvmiZ4vROA8P4IHkvsy1YVcTJ09e1bXz15/H+T2xJyxH8eQfZ2G10+uvi9c7Wesl5evEQ3rdZj+waJfUK3mckO/kWEM2v46paC+J0MNZq90De57ONQw6Q/tr/yNbDmzPmz1jP1k6l/hGmDcN4bPRJ0WAaf/YPZ5NTxTrk9/E9/sNfaLqhlSijv7Po0gXxv7AQ1+LWqrr277XItXC4ttfcawTia/9U3FGsvX5GY+s8D3iHZeVPlQHFPaPuAjOr715DGp689WDuMyfY/kZPsyxxnmq2HMc2ofhvO7xv7Qw1i3b8oWGF5HHGIQ6Rjqtetmr78Npx9v6/JN6NF9FV2+jHdaGrdH/5kIyzirV/D/Kdv086brYyKs7WgnX738oP53rIfJvhdPtXcO3ejbF85rvdsHbR/OxjwRxpD5H3WqHmkXbVpHU39Ese0Rrndn/SkEvWtBDoZjtZ+Ky5Xle++9FyNGjFBTMXZ/PnY5L+CSfBOXfONRo3xrkbZ9YmzJ7ZDbM1Al3JODZw1vgbNiX7cXm6Z2cdo7LAdvHeqijd3IpNDNBEbk4q2/lGCeSR/NejZkvXQQbwW9eSkB9hcOofr34W2X9/xpNPgv3SUgbfqzIZ4e1pqIog/Edsb7Qbqo0yIgLatI35xG65rFU/0ayRnT9A9+aHluxP7Ksl+i/8HTenGMV+56BZs2FCJfvt1ry7uoPlePXc90fccn+bGNqKy/4G+nt2nDSrG8fCNbCQ7WNqP637P0zRuMRNrvOvZuGGkv2Lyoc8fm6nLChKV41Xj18usaOI854fJfsbHBkaH9vw050x8OK693V/Jskea78sJq3mO74sbZuD34aqFH91V0+bJ30zJQNla+EEbZOCEfB3evNH1rq2yKEVzrdvOtfV0ZNBGrPqxGUVjlcivO1bY3O0hC1vxC/VvyrNhE/tldaF1G2lRbZAv2RQfw7oo0kbpasUnr7olm27tbfwp32DDauJAttX8/cK7EJViWsrOz1VgMTS1BbdUryL3f1vF0cMIdqcha9h5qt8cnYI7LdvQlg1KR+9JhfBKiJwzbPbnYVHkB1S+E93rnhHGFOOiqNvk+G1Jnb0T1sV3IU3OsJIzKQ8mJenEilIvUoCNWfk8R9rpqcfA5YwHVLhH2FWK7XO+jaLY4WNXcToHv2HXsAur3iIJCRU0Jo+S21oboCSOwDZUXqrFqQgzbloUQfVqI75iwEu/vLUSWWeH5UVPXzRKG5WK7Uxx7pk9UNwS6S4oXcYw7ZuejcNlGvPpakf8hN/uwCNI+weZvp1e4rEgsv1H8zUPWqDDvdYogrKT2Aiq35JunnXwodssB1NcexqbHYtUkR1ZWlajdFby/AsfiSVRW7hL7O1CZ2Z4uwQuZ8c+LybNLUH/hsGU50f5A7CeVhtf49pSe3ldR5MveTctEONYdxin5umSzMs6fTofx1dFXkGV1zUu+DONhNd4uMweOeO33RBEwi3K5dq9Frw4iIMtdJ05CLtRjr+blJok/K8RekSese4MQQeWyd1Fb+y5yQ13fe0Z8t0n5KY/Hor3ipGmLVS9SMUjrbopu27tXfyLBgWU7V3Z2DGBzoOiDVXD0TFUZVzfJy8tqPKZcNTWYMmWKmoqFJLx6sh75lv03NqFs2lgsOKYmY6S6uhr2icY2agOZfFOYpp/HmxORGM3Z7g/i+9r7jYziu9q8XvmqiYBbxPdEevBp10O4ZVCYT+m2eaFNjrCXi6Po0sKwf4VIt0n3+1J39kcY2q548H1i54mxUePuWRi7tPPRRtvv/4avVmiuDYnlPYNs+reQabQdW4sx07Z1nijMeR9f7cwxqRg66bddPu0d/1qg8zdNfu+6F20i/Xs+TxryUZzyQDTita+izpdBejktRR7ydvToEX46uTbcjimb1YSQ9tLfcFIEqj2im+usX04mtTh21LjOmS0YnLleTQjrqnHtBRkHaPdVN/KUrj6JXZ4MS7jbbibS+rN9O/tgudBdcQuWpYezsnDq1Ck1Fa2NOHlVnMGE2EENu2/H+KVqIgYmTZqEo1W6jmGIqEd4UbV8OGa+kwT7k9MwbbIdaSPaL1940bB/JzbvduquiOeXNeNVTTMh95s/x+TVLUidKpbPtMN+j01VDm3w/H0P1m/Qv2SnRyt76qeiz5f9lffrGtRdsyE9aQiunt+H9XNWaHr+SMOmk39DYaQvI+mrLINl+rGKa7B86NAh5M2bp6aiVYLaf+ZB35OvXsN7IlherCZiYE9pKWbMmKGmiKjHeKvw/PBZ+leqhjKhCCf/shJpHVcx3Ng2+edYo3u9cAi2XOx1vosc+UIBIitR58v+y3glWWfcRpw8GaLNb3/DYJkM4tZmWZKBprw6GxsNaAnZw1UbWmPYf5JcbwbKRL2jzXXC4u16JkbmYe9uQ0By3oWqsANl2a6uhIEydSnqfNlvNeGcZb/kE1H0uvGlTkQDS1yvLEtOpxPZjz6qpqLjeOMfOPjrVPN2NhcrMHPME/q36USh8vBhOBz6N0MRUQ+63gT3MSfKj1XB5XYb+rG1ITUjC4//eh7mTZ8Im1nzrDYvGmqq4DwqvuNTF84Z+ldOnpCDh3PzUDgnC8n9/y459ZRo82V/dKUKa/LWYp/uGJJNUeZh2dJ85NwzwA6gT3Yi+8UKNSFM3Rj8VkD6UYl7sCytXLUK27dvV1PRSEJhWSWKpibpAua2S1UonjsLxZ+oGVFavHgxthQXqykiIiIi+rHqkWBZ+kVGBj799FM1FZ3kjDzkzXYg+Rag9fM92LbVGbM3WN133334zxMn1BQRERER/Zj1WLD82Wef4aGHHsL1775Tc/qeQbfdho8//nhAv4SEiIiIiMIX1wf8tGQAuru0VE31TXL9GCgTERERUbseC5alqb/8pb87tr5IrpdcPyIiIiKidj0aLEuyO7b9+/f7mzz0BXI95PqwmzgiIiIiMurxYFmSV3Bl22D5MF1vkr8v14NXlImIiIjITK8Ey5JsGyx7nZDdtPUG+bvy99lGmYiIiIis9FhvGKHIF5ds3LQJp06dUnPiR76Zb+2aNXzhCBERERF1qU8Ey+0OHTqEt3fsiEvQLIPkRc8+y7bJRERERBS2PhUst3PV1ODAgQOorKzExYsX1dzIjRgxAtnZ2Zg1axbsEyequURERERE4emTwbKWfJmJy+VCXV0dzn/5JZqbm3Hl8mV8d+MG5KrfdNNNuO3WW3HHnXdi+PDhGHX33UhPT4fdbmd7ZCIiIiKKSp8PlomIiIiIekuv9YZBRERERNTXMVgmIiIiIrLAYJmIiIiIyAKDZSIiIiIiCwyWiYiIiIgsMFgmIiIiIrLAYJmIiIiIyAKDZSIiIiIiCwyWiYiIiIgsMFgmIiIiIrLAYJmIiIiIyAKDZSIiIiIiCwyWiYiIiIgsMFgmIiIiIrLAYJmIiIiIyAKDZSIiIiIiCwyWiYiIiIgsMFgmIiIiIrLAYJmIiIiIyAKDZSIiIiIiCwyWiYiIiIgsMFgmIiIiIrLAYJmIiIiIyAKDZSIiIiIiCwyWiYiIiIgsMFgmIiIiIrLAYJmIiIiIyAKDZSIiIiIiU8D/ByJGsmk/ZShlAAAAAElFTkSuQmCC;" parent="1" vertex="1">
          <mxGeometry x="78.51" y="555" width="327.98" height="50" as="geometry" />
        </mxCell>
        <mxCell id="1pthjZ1_B0n-7u5q8_Vb-47" value="(GDS Warning text)" style="text;html=1;align=left;verticalAlign=middle;whiteSpace=wrap;rounded=0;" parent="1" vertex="1">
          <mxGeometry x="420" y="565" width="240" height="30" as="geometry" />
        </mxCell>
        <mxCell id="1pthjZ1_B0n-7u5q8_Vb-49" value="" style="shape=image;verticalLabelPosition=bottom;labelBackgroundColor=default;verticalAlign=top;aspect=fixed;imageAspect=0;image=data:image/png,iVBORw0KGgoAAAANSUhEUgAAAa4AAABBCAYAAACJkEB5AAAAAXNSR0IArs4c6QAAAARnQU1BAACxjwv8YQUAAAAJcEhZcwAADsMAAA7DAcdvqGQAABqmSURBVHhe7Z0NUFxVlsf/tmjbEpoW0zBIIIiwDAVhMSS6kviFo27P1FjEcpTZrItlbeHOWsmqu4w6k2RmNLs6xopuWNcJ5U6Fnc2Is5Zh/cIkBmMMMGMglUlgkECQ0Ik9pCPTaYKktdOz5753u3nd/bppCB/peH5Vr7j9+r1+75577j333Hvu5aI/E2AYhmGYOMEg/zIMwzBMXMCGi2EYhokr2HAxDMMwcQUbLoZhGCauYMPFMAzDxBVsuBiGYZi4gg0XwzAME1ew4WIYhmHiCjZcDMMwTFzBhothGIaJK9hwMQzDMHEFGy6GYRgmrmDDxTAMw8QVbLgYhmGYuIINF8MwDBNXsOFiGIZh4go2XAzDMExcwYaLYRiGiSvYcDEMwzBxBRsuhmEYJq646M+ETF/4eJzo6nLhFCVTc/KQa1FP6+E+2ovOzylhsqC0wAqjejqcCL/pcQygw/HVxPfHJW707R/CCUolp2ehMP3Cyt2sMwm9vLDwwNk9iN6xqeoR6+HXlRnxuGp39uOLL8/KT+cRl4zg3V/1o5KOTe3D8qQew2j+tXpd5Sv96PTJ03p09cGm/OZxdH4pzxHuQwPq/Y0Oql6zzMgQmt9qw+onfocOeWp6OYkmvxwPjcpzzJQ55cAmKc8muzz3tWAULY3nokesh19XZsRwbXi3F998/H1s63DgrO88cugMFhRlqMnGQZea0IMa/g7RjRP43OjolWkd7INfqAlTIvJS1eRc42zrxgPNbjR65AmGYZgLiBmd4/qn/zmIfDJgbX3RvJvZJAVZWTLLdjcidm4H3HhXJslyobnbIdOhuNFr96rJbDNy1RTDMAwzg8x4cMaXXh/ue2kf7nrht+gbmnt3PjfbpCZcZHRG1GQoXd1uOOlvoUkVT6vdFWG4bxhdA2rKln2hzWMxDMOcn8y44fJzYPAUyp/di8d+fQhO99yNYRlzrkCFkhpD16CSCMGBQ91iUsuAFbY02MSp/s/RqffKDrec/zKgdGGKcophGIaZWS7+KSHT08YL24/IVDh/+GwEdbsHkHCxAYsyzbiE/s4ql5+Bfc9J7PECyfOT8d28RPmF5OQg6na68QmS8OjfZ8D88RB2nvkKV2fl4Pq0i+RFKp7uXqzu/IpSl+Mf78lCZoJ6XvDFkQHU9Z0FEpPw0I1pSKTfbdp1GK+98wn+c8cxfHLyFBKvsOCqJM1NWrxjsPf244Pdn+KtXb2ofe8IXt8/hOGTp3GZ2YzU0PtEZNrBz9DnGManh114+4SwqBehKPVLfEHn7MrxJZLTk2L0DH1w2w9j29u9+O9th/FfyrO/QOpVKUg2uvDx9mG00lV5eRn47jXSiw3Cq0Rmbnunl/J8GHV7P8OnQy5clDQPmcmXymui4PPA2fkHvE73v/xmL94+RM8/dRYZC8xITAguhyC85AV/1IPGHYex4e0+7KT7HCdIZldegdTLJ9C1EQc6uv6IAZKVG/PCZaxAcunrQ8cAyXOI5PkNVZ4irx39dM7lQ6o1EXp3ikjTj3ud4deMDuHtvafRR8ll1+aSnqmn/YTdN1ld8jNpmYqovUF8QvLwmK5EymXBOvFZWg5KrPJSKm/P8WPY89sj2PnhEdTR72/9kN7t+J8warwYWSn03mGPGMMnpBdNo349uiSgM36dGx05gytTryCd03u/P8WghxKqHx3NPdj6bg/VpQH8nsrKnZCAq4U8o6hTKMFlYcJZRx9ef/Ow8r47qd6NXmrEN9M07+FyoHlnJ375hqwDrjGkpVlIlhPoonLfJ9jqL2OSozf5clxtiVJ7PS709XyKHTsH0Pi+uO9TRf+HT53BvCuT9Z9Jz2n9wx/H24aRIbR+eBgNATm5gJQJnjsHzEg4fNaj22VqYv79b4tx17XfwMWGSWjPOeFBa91uVHZTsiAbvdX5QQ255+O9yHuValJOFjpXFcC+dTts7UDhDQVoujdLXqXS9ZudsLWRgUhNR8eTxQjUYcK5YzdKm8hNo++2LXVh9TtkiOR3Wiq/sxjPfUt7J2D/cC9q3hxFa5RoxrIleahfmTP+7icO4qFnHGiSH/WxYNsL16NUfoqIz4nmlw/ggT6dFzAkoLrCCuMbDtTSR5ttKTbfEeJtjg2i/sVurPUHuISQmZmG+h+UIDdSO3O8C+s3H0Od3lAuPX/VfaWouS48ZtzTvQ8PvTKM5ghyK8tPx/qVRchNitBo+PpRW9OLDXS/tSQPHVU58gst1LH5UTfWj1FSoz8d9dux4gAldHTBj1Yngq7RlF3Ng3di1SL1tJ9z0aUAU5IpyeNRkgelah68CWUHW1Hd7lWG0QWBdz1OZb2ZyjzC0LvAmmRB3ZOke0FlPozGZ/ZhNemJ7Y483Nd/JIrOFWPNjaF5G38/XT1U8FJ9+m3E+mRNMqP2ketRlhJbBzqWssjMXICGRwqAllasfmNUJ7LXgKq7S/B0WH4I3yi63tiH6haPbhnr1x265/XI9/jR1Y9Dv0PWL0WgmgVbHgTqtrh05RTW3swxsZXWDDL7ARxG5OVI8Q9Qj1JNSXzo7Fbn4Wz5aTDT31zpkXX1ukKUYhiDg2oJF15j0W2oFE46UC2Um3p3VUvSseX+HGyxWWCTneOGdw6gtit4HDIz1YhT9NOZiSZUl2ehge5RDjIYlUnqNa3tvVj/kWbmzWTGrUtSsIaOVRn+YhXPVM+pB3lq8pvIDKNp4/5AA5KbbsGme9Xnby43w2bwok4aLV3GqDH5V2m0DAZUlKh5brg/G5tKjMik03b7EO57Zj+6dCoIHAexeqNsYBOMqLFlB+fd50Xtq/tQe0hYDg0uMibSaJXmplHDsRSdT92AjkfysXmZCWUkktbeYXSeltfrYchAKbU3AmfP5+hSk8EcpWfIR1eXZM9uRZ6CLilMVaYa7LupYZRGKzfJiKpFKSj027n0RGSKGKUEAyoL0rBZKW9xZOHphQlK3XCOuFD9SneEuWKg/f1eRecyU8f1LZA3er+6NyhvUd5PHx/sO/aiolE1Wtrf9uuEc8SNyo370DHZn5ZlcSbJhKcr6DfvTccamVe7/RjWvrhXNVpkdCtlWSn1RykrH+rfOIiGo6EVYAwdv2qFTRqgsoVWKcuQuvPSQdiDbiX5Ww3KPbnk2a7xl69WhoTQj7oevUoncKFGGC0yCRX+Mgxpb2reP1+C7M4Dj0tLSVYyNv7NIuSmhQzfTTc9+2D7xTA1TEZs/vEtsM2X5wO96QQ898htqFxIp0aoEV5HvUmYsOWpm1AuC1L0zjf8c6/SgFd//xasuS64CQv0zASJ5Ok8vhSl2p4+NfAbnqb7RYUJ8/zG4HT4YKUGIQzyhhp/vl/ppfq9QmFgtYw/O0YPS4PwOMvI4xQNVMUdJdhkCxm3UgwT9XJlnE1wT9dDnsce8jyochiM2PTYclRkyFoj8fQfQM1LQ2ikS0rJi90W5MWO98CtGWl47eGQnqXIOxnV1ccpnZiCpqeWolCKNJBnE51fP34+wMgAWo+loawgkpun4mlvQ9lWEZyj0QEN47IN1odZ8bgEk9alqctU69EIrPNTUPfwtSi1BJepwHPSCU+KFeZQuQvj0bQHy3aEy0z7bgJ9fTuGhpe68EPxfibK+09InwOZm8Dj0si14uZCbKhYENzREAb9eUcEXdRHWxbWjHQ0PlaMzECeyfDU71X1X8FA5bmcylMjcM0zQ716D3k/FeT9dNF9q76/NMwDFt9X0vfCg6u6+wby2DQ13+eCc3gelVF42Wj1I2zkKOBxEXp1VtveWNLQ8pMSxYDONWFqNpfMWgBHthnLlIQHndJrUnCQUojKb5iHPH/pJM1HqWLYxtDarXknu1sOARhRlB1stIIxYM3KkIZGYMpB5XVSQcI8P5O+0RIYrFjmr7l0X7ShgclD3tYu1WiJxnVtaCMioPeuvs+CQvkxCFcfXpOV1nZncZjREhhzilFzo3q+43fH0aot5u4j2Kw0Ygmo+V5x+FAi5b3i79LVgJnRYby7f/zmQYdMJxp1Gk8iKXtCoyUwkiexQkl58d7BISU1jhuHeuRzcqxYEmiAZ4sp6NI5yDQIgwkbHqZn6xgtgXG+ntESGJBZmqL+PtUh/YAogjocD92pp28LUPm9NJSL9JgLjR/Hupzfh65dQ+rQeUoaau4KMVqC9GKsvVM9G6aLE6LKc9xoCUwovUMGdBHWwmxUa42WIL0IVcVq0vnZ6cCwq9Ct5p3CaNF9BVlYrTMUblxUgjUl6gPrd/cH132DRd9oCUg/yvPVZNfgiOaZwVTetTi8zpJ+2G6TbVGUSOzZRlfVLniMVpTKhcgdg+ONk7vPpSp6vgVFAclYkZenftjWLbp9Ku5BtzIpPPHCYzNKC/TFfNnlF6uJMR/OqKnJQTZiSvdFQrPwump5tq7XIDAWWtWGJAT3oc/RoKQSUXVzpChLashu+QYqRdJHlfX3461F1yG14iLVitsWRlDN1AWwSXk39Iyvr8vLkQ3ESQdq3zoGt6Y/MimM2SiXw4XNnUPBldzjQGu/mqwqyQjzdGeeyevSuchUi7V4AcrD29LJE6FcCkvSwr1kPwuzUCHfr773pJqYkGNoOSQ7UddnhRiYcawl0qiKjQaCe4/Roc7tohBvXCF9Hopk8tv5aeHGkvQ/S29rqhEynNISPXBDns59AiNKF5vVejnsQmesotDyVaQdjYzUsdPXaKPpEpnywT3ZIdUZIpKqzAliqLD5ieXKcKHVrF9008P4QuTxNVrkfXWrpVJVkB6kOIVUoEJZnBoPxz4oS3CihcepJkw8ABEJLzwj9MyeXrS2HUT91n1Yv3EXVjVPqmsYO9QDbFcSVEFyozTLJLrLZFJLQCbzzciMVnyWFCyWjWDnZ/5x8/E5Q5i86N1PedY9PscpaaOc1HnwGxbzsgJskp2RhuYuFD2+C2u3HkTr0Vh76H7Ig/Z7ZidcOKTtYR52YZuSMKFs0eybrcnr0rnJVMuS9Bit1pgb7uOD9Js9aHx9H+rq9qDyP4akXkUmyzJPpvRIQZ4/40NaLyUKJ0fQKdUx+fTnIfnVHMe8SFYvQ+fxSczhzDdNOF+capmEjpDc1U0PEnDGeUT/XcXh9CFPuc6DPr0+hs8D98gw+rro2g8PoG5rG9Y+swvrO+X3ETEhc6IMnUecF4br0gQDXnt4Kd589K9mfn5LEliI7DdGvuPo6BGJBBRmhSjcX1jU4SOXS3okTvTO5MJj3yj6drThgZpdyFvXhmW/6EflbxxY2z6MOrt3kkMak+BLn9o7F8gO/GQ4IzcRiWTYxjHiMhkR33pqvAvnESsLBEed6j6PEY61R+V1WsSQ1yMl2CInseH1or7dgcoX21D6xG7Ufhi7F2YusaJKSQUPD/sXplOLhCXT4X3MAuckUw1F6ZE8aIFYInAQ63+2HVk/akPR8930mwNY3TKM9dQZbB3xxWZsopBqlbXsxBgijTYG4TtLTbtKw0f6eVYPpxwlmGNIN1UZeVH7lt57yuMtOdITincYra/uRnnNbhSt24fyV+jaxiGsb3ej/oQXHf66eYEw54ZLhMP3/PxbuCE3WsWYfgILkX1j6BU9F7sbLaJhM5nDhwCMVhQpvREPGTfqwXuGpZs+EwuPPeh6tRXlTW40k7IpkYVL1Cifpn+5AZ3/dhs6bDPpjc4uVuq0hCEio4KiISMcxebgTkNCGsqrbkHLs4vRVEHGJ8WgesoeDzY0dqHq5e6QaKwIJGXgVjlnPj487F+YTp2V0gURh1HPW6Yq0xjwdO1D1UsO1Ik5fiWyMAXPiUi7fyhB51M3YfBJOYd2Dpzxj3BZjDFExgZTnqOTT53jVp052dnHgIpC/fcLPQJRnWJu+sV9qPyYvDBSURFZuGqZiGTMR/OPqc149nZsK5GXXiDMmeGq+XYePiGDtaI0fRbXcGmYn4QixenyoNPugbNHhIJSQ5p/pU7gQQpKC1Slru92wENeWovyyYSibCUxfZzowaZ2tYEUUVYt62/CmpUlsC3OQ2GGGWbTDFau+SbZwHhgn0IXOTVZvtuIR/lXExHxudArL1iW5vduE5F6pUxarkTlyqWonuj4Trb+PBN1NApvXoyn196OjqfIC1uihil39A2iri2WoUMzlhSrHnkgLP7oEBqV4CsjbCVT66wEGt9ZYxplGhFqNN9UI91ElF3LM7fjueqlqLw5D2ViSUmSHNmYiLPRhOPDiUDwzSUTePOSZOl5E5kl+fp5DTkqCyeX82nFbESZTBbdqP9+oUe5P4OHerFG6V8ZUHP/cjSvXY6ae4pRvjgbufOpzTCeFwNr08qs5+iepVeh42e3YNXtObj80imMR00baQGj0zIwGIgW+3ZOIDY+iMwCs2rQhNGyj8oJbzPyptv5GRpTA0So0aks14mymknS5gWCUloUNzQCJ05Db8g8M1/KaMyN9v4org0Zg2YlYUBRpt8IGFGULxu5fidaZITuOZNEXtjKa7HWP7nfF9uMtrnAohpxysuho8KAqR0bpFhQOqW5AOoMUAdpdpkhmQbhgl12QlbclB+0e8xkaLIPk4Qi4DsWCJwozEqKzds1pqNUNuz1++wR14+dN1A9KFeKyodt+2MaDA3gdIypw4wWKyoWz85Uy1wza4Zr9gIvYmV8IXLXwQHUKtFiRpRS46uLP4R+zIUNMjgi6sLjc8aLE+I/C+pw5osZ6robslG+RFWJ1o960azb0Plgb3VK4xoC9bBXKPXGi03v9Og3FmJdyDtiDR2RYoVNhukKzH9pRZXy+DHU/V9/lIZMxyiOHUOfI5Kx1HgesRKItPPig57xjk3ZojTddSyBSLETLrTryc3RQ966TM8i5yTTSWJ3RdhEe8yn/JPMqHQ70KRbfqRv7/djszIVakDlkljDU6i+LjWp9dP+GeqjLV6ehryfM4YFWCZD3bva+9EYUZeJSO/r9kDZ6S0MDzwRCz4+mXHDNReBF7FizUxUPYRRn7omyxKlN009uDJl3sOHLlkHlmXPgEdEBlINDPCgvqk/JKBATIIfwIaP/DOtpKg6jaRR7movGit7tAoQhgGFt12FCnG7bww1G9vQ7B+iEShBI61Y/WGEmV5DFqruVr0uZ/8gql7pgVN76cgxNL58QF3sSs+qubsg2AhY8lF9p1Ed1jvQi6pf0v0e7ft74e45iPU/3Ym12l1DKJ8dv+lG+fMfYP2OQbiDXo9ktp9kJo3GqkIZejghKYH1ck0d/XhN6dgkoOLadOVcKNZCi1wiMIY1rxxA34j/vdV3XvtSlO24TJcE5m1OnI7SwE6FKcs0VuajUM4HNu3pRUcg3xIq84b/HQoEFNiHIz3Dg9UvtZLnpaNvTR7FoxDrmyqDduFKIF1XU6dOy/+Lp0FEmq5VituHDVtasaHNieCsu9G1Yy8qH98boZM2m1Dd++41qBFNpI9ksXEvGsR8uhaPUwnAWLauI2jXGetC2Y75XKjfHrr20Atn2/6A/ivD+CFFFI/M6M4Zs78P4STx9GD9EwOokx+tS/LRsTLypFXQDgbknW168pbA+pJQIu6SoGH897Q7XIhtavagwl9ZjUasWEQeAymgvf803h0mrUtKQNaIV51XSE3DazUlyNUO0Rw/gAeeH5LDcVAWjRrF72Zfgxbd/feC0a7QF1iNBuRRA3GCrKiY/LVqnh++YwG9Z9NeVOxQ318QeL6LDnku8r56ZIS2Bu+Jl0vPS72Y3uu0JjoqKQVNP16KQmFbPGQUXunEQ/597gwGlGXMgxhp7es5jV0yqk3sIdf4WGHsXnKIHKPvHBC6a4Iqt8uopVTzbEBFhgGNxykDYTqh2f+QUOVlRNUPlite39R1yc8UZKowvjOF3o4eATS7QSjbfIl1kNQAnyIj1TTgRR8ZmDKTF63CITMY8dzq5ahcKBR2fOeMsgwjPMc9qk6H6JtAf69DN5pr2/CAXFvnz1P5Pbei2r8oTOz08gzlwb+sQeiGslI6WB/LbihA/b1ZJPXoTFwWE8ss6m84uvDDjWTs/WVCHf+yefS+Z33o1URnVlZcj+du9kdnBOtepiURFblGJFNd7Ot2o4HknkmyMVOdFSMdpQU5qK/OU+cyNXsVRtxlJ3BN9DZvNvF3zaeVOQ+8iJVAtKDKijz93rSfQM9GMGP/8diAzDuW472VKaigWiQi4urah9WwVjJaS67LwXvrbsUmm9qLXnFbfrDREmQU4+m7E5W92AQdLmo0RCV1e2Ia6zcuuh4Nq9JRLeuF6KGL+0UjUl6QjteevFp3AbJKAjJtN+GDh8fvDzyf0pkWMzY9vDzyZrBi94GVN1P+raiS9/dRhWul3xANrDDkNTbqYKzTNLDkDdsevhUdD6ajJt0Aq4/e1+5WZNYgKntCAqpthWh6ZBJGS5CRhr8ORG6J9XwpEYyWgN77/jI0LTMiV8pdyE3k2ZqUSHkuQ01xpDld8lS/bwkpL/I2QjvPU2YKMp0M6cXUoOVgjZR9Y7fQ12HU9nvhmZ+ChidvRgPpg/DkrfnpWKEYrWCSi4sDOqfVN4GtJBuN60KNlsBMRmoBKuXPBfJ0XOM+mXKwivLVsCwR5eI6oRsafVT24nyQvo/BaM0K6YV4bl0hNpdIPfLK95VGqzzHii2PUf0JGC2BqnvNNpIH5VEM2dbKNqNhTOr+T8uwXhmKTMB9d14zyQCc848Z8biY6UIsQP4iMC9hNJlh1Nb5Meqim8Jq8zjeMbjH/At5iITLJx+VKBaUyt5f2PNjQXP/uT5f9NbNiTE0L0H5viT2yLbpQvv8WN9ZEFJeU5J3LExFprESrbwpfx5qZKPnyQfP6OnAkF5MMhCLbkf9tYS4dF6ESLrg+hT5uvOEkHxNXhYXw5iYiPEskmxJv4ym88JEnxNsuBiGYZi44jzubjAMwzBMOGy4GIZhmLjiazNUuPG9Pry4/Yj8xDAMw0yV7me/hUTj3G0gwR4XwzAME1dwcAbDMAwTV7DHxTAMw8QVbLgYhmGYuIINF8MwDBNXsOFiGIZh4go2XAzDMExcwYaLYRiGiSvYcDEMwzBxBRsuhmEYJq5gw8UwDMPEFWy4GIZhmLiCDRfDMAwTV7DhYhiGYeIKNlwMwzBMXMGGi2EYhokr2HAxDMMwcQUbLoZhGCaOAP4frc0xr5gFnnAAAAAASUVORK5CYII=;" parent="1" vertex="1">
          <mxGeometry x="40" y="430" width="198.46" height="30" as="geometry" />
        </mxCell>
        <mxCell id="1pthjZ1_B0n-7u5q8_Vb-50" value="(GDS Details)" style="text;html=1;align=left;verticalAlign=middle;whiteSpace=wrap;rounded=0;" parent="1" vertex="1">
          <mxGeometry x="260" y="430" width="240" height="30" as="geometry" />
        </mxCell>
        <mxCell id="1pthjZ1_B0n-7u5q8_Vb-52" value="" style="html=1;shadow=0;dashed=0;shape=mxgraph.bootstrap.radioButton2;labelPosition=right;verticalLabelPosition=middle;align=left;verticalAlign=middle;gradientColor=#DEDEDE;fillColor=#EDEDED;checked=0;spacing=5;checkedFill=#0085FC;checkedStroke=#ffffff;sketch=0;" parent="1" vertex="1">
          <mxGeometry x="40" y="875" width="20" height="20" as="geometry" />
        </mxCell>
        <mxCell id="1pthjZ1_B0n-7u5q8_Vb-53" value="Slow (walking pace)" style="text;html=1;align=left;verticalAlign=middle;whiteSpace=wrap;rounded=0;" parent="1" vertex="1">
          <mxGeometry x="80" y="900" width="120" height="30" as="geometry" />
        </mxCell>
        <mxCell id="1pthjZ1_B0n-7u5q8_Vb-54" value="" style="html=1;shadow=0;dashed=0;shape=mxgraph.bootstrap.radioButton2;labelPosition=right;verticalLabelPosition=middle;align=left;verticalAlign=middle;gradientColor=#DEDEDE;fillColor=#EDEDED;checked=0;spacing=5;checkedFill=#0085FC;checkedStroke=#ffffff;sketch=0;direction=south;" parent="1" vertex="1">
          <mxGeometry x="40" y="905" width="20" height="20" as="geometry" />
        </mxCell>
        <mxCell id="1pthjZ1_B0n-7u5q8_Vb-55" value="Fast" style="text;html=1;align=left;verticalAlign=middle;whiteSpace=wrap;rounded=0;" parent="1" vertex="1">
          <mxGeometry x="80" y="870" width="80" height="30" as="geometry" />
        </mxCell>
        <mxCell id="1pthjZ1_B0n-7u5q8_Vb-56" value="How fast was the water moving?" style="text;html=1;align=left;verticalAlign=middle;whiteSpace=wrap;rounded=0;" parent="1" vertex="1">
          <mxGeometry x="40" y="840" width="210" height="30" as="geometry" />
        </mxCell>
        <mxCell id="1pthjZ1_B0n-7u5q8_Vb-57" value="Still" style="text;html=1;align=left;verticalAlign=middle;whiteSpace=wrap;rounded=0;" parent="1" vertex="1">
          <mxGeometry x="80" y="930" width="80" height="30" as="geometry" />
        </mxCell>
        <mxCell id="1pthjZ1_B0n-7u5q8_Vb-58" value="" style="html=1;shadow=0;dashed=0;shape=mxgraph.bootstrap.radioButton2;labelPosition=right;verticalLabelPosition=middle;align=left;verticalAlign=middle;gradientColor=#DEDEDE;fillColor=#EDEDED;checked=0;spacing=5;checkedFill=#0085FC;checkedStroke=#ffffff;sketch=0;direction=south;" parent="1" vertex="1">
          <mxGeometry x="40" y="935" width="20" height="20" as="geometry" />
        </mxCell>
        <mxCell id="1pthjZ1_B0n-7u5q8_Vb-59" value="" style="html=1;shadow=0;dashed=0;shape=mxgraph.bootstrap.radioButton2;labelPosition=right;verticalLabelPosition=middle;align=left;verticalAlign=middle;gradientColor=#DEDEDE;fillColor=#EDEDED;checked=0;spacing=5;checkedFill=#0085FC;checkedStroke=#ffffff;sketch=0;" parent="1" vertex="1">
          <mxGeometry x="40" y="1025" width="20" height="20" as="geometry" />
        </mxCell>
        <mxCell id="1pthjZ1_B0n-7u5q8_Vb-60" value="Muddy" style="text;html=1;align=left;verticalAlign=middle;whiteSpace=wrap;rounded=0;" parent="1" vertex="1">
          <mxGeometry x="80" y="1050" width="120" height="30" as="geometry" />
        </mxCell>
        <mxCell id="1pthjZ1_B0n-7u5q8_Vb-61" value="" style="html=1;shadow=0;dashed=0;shape=mxgraph.bootstrap.radioButton2;labelPosition=right;verticalLabelPosition=middle;align=left;verticalAlign=middle;gradientColor=#DEDEDE;fillColor=#EDEDED;checked=0;spacing=5;checkedFill=#0085FC;checkedStroke=#ffffff;sketch=0;direction=south;" parent="1" vertex="1">
          <mxGeometry x="40" y="1055" width="20" height="20" as="geometry" />
        </mxCell>
        <mxCell id="1pthjZ1_B0n-7u5q8_Vb-62" value="Clear" style="text;html=1;align=left;verticalAlign=middle;whiteSpace=wrap;rounded=0;" parent="1" vertex="1">
          <mxGeometry x="80" y="1020" width="80" height="30" as="geometry" />
        </mxCell>
        <mxCell id="1pthjZ1_B0n-7u5q8_Vb-63" value="&lt;div&gt;Polluted with sewage&lt;/div&gt;" style="text;html=1;align=left;verticalAlign=middle;whiteSpace=wrap;rounded=0;" parent="1" vertex="1">
          <mxGeometry x="80" y="1080" width="130" height="30" as="geometry" />
        </mxCell>
        <mxCell id="1pthjZ1_B0n-7u5q8_Vb-64" value="" style="html=1;shadow=0;dashed=0;shape=mxgraph.bootstrap.radioButton2;labelPosition=right;verticalLabelPosition=middle;align=left;verticalAlign=middle;gradientColor=#DEDEDE;fillColor=#EDEDED;checked=0;spacing=5;checkedFill=#0085FC;checkedStroke=#ffffff;sketch=0;direction=south;" parent="1" vertex="1">
          <mxGeometry x="40" y="1085" width="20" height="20" as="geometry" />
        </mxCell>
        <mxCell id="1pthjZ1_B0n-7u5q8_Vb-65" value="&lt;div&gt;What was the appearance of the water?&lt;/div&gt;" style="text;html=1;align=left;verticalAlign=middle;whiteSpace=wrap;rounded=0;" parent="1" vertex="1">
          <mxGeometry x="40" y="990" width="250" height="30" as="geometry" />
        </mxCell>
        <mxCell id="1pthjZ1_B0n-7u5q8_Vb-66" value="Additional description of the appearance" style="text;html=1;align=left;verticalAlign=middle;whiteSpace=wrap;rounded=0;" parent="1" vertex="1">
          <mxGeometry x="40" y="1110" width="630" height="30" as="geometry" />
        </mxCell>
        <mxCell id="1pthjZ1_B0n-7u5q8_Vb-67" value="" style="rounded=1;whiteSpace=wrap;html=1;" parent="1" vertex="1">
          <mxGeometry x="40" y="1135" width="510" height="60" as="geometry" />
        </mxCell>
        <mxCell id="1pthjZ1_B0n-7u5q8_Vb-68" value="" style="html=1;shadow=0;dashed=0;shape=mxgraph.bootstrap.radioButton2;labelPosition=right;verticalLabelPosition=middle;align=left;verticalAlign=middle;gradientColor=#DEDEDE;fillColor=#EDEDED;checked=0;spacing=5;checkedFill=#0085FC;checkedStroke=#ffffff;sketch=0;" parent="1" vertex="1">
          <mxGeometry x="40" y="1300" width="20" height="20" as="geometry" />
        </mxCell>
        <mxCell id="1pthjZ1_B0n-7u5q8_Vb-69" value="No" style="text;html=1;align=left;verticalAlign=middle;whiteSpace=wrap;rounded=0;" parent="1" vertex="1">
          <mxGeometry x="80" y="1520" width="40" height="30" as="geometry" />
        </mxCell>
        <mxCell id="1pthjZ1_B0n-7u5q8_Vb-70" value="Could you tell where the water was going?" style="text;html=1;align=left;verticalAlign=middle;whiteSpace=wrap;rounded=0;" parent="1" vertex="1">
          <mxGeometry x="40" y="1270" width="630" height="30" as="geometry" />
        </mxCell>
        <mxCell id="1pthjZ1_B0n-7u5q8_Vb-71" value="" style="html=1;shadow=0;dashed=0;shape=mxgraph.bootstrap.radioButton2;labelPosition=right;verticalLabelPosition=middle;align=left;verticalAlign=middle;gradientColor=#DEDEDE;fillColor=#EDEDED;checked=0;spacing=5;checkedFill=#0085FC;checkedStroke=#ffffff;sketch=0;direction=south;" parent="1" vertex="1">
          <mxGeometry x="40" y="1525" width="20" height="20" as="geometry" />
        </mxCell>
        <mxCell id="1pthjZ1_B0n-7u5q8_Vb-72" value="Yes" style="text;html=1;align=left;verticalAlign=middle;whiteSpace=wrap;rounded=0;" parent="1" vertex="1">
          <mxGeometry x="80" y="1295" width="50" height="30" as="geometry" />
        </mxCell>
        <mxCell id="1pthjZ1_B0n-7u5q8_Vb-73" value="" style="html=1;shadow=0;dashed=0;shape=mxgraph.bootstrap.radioButton2;labelPosition=right;verticalLabelPosition=middle;align=left;verticalAlign=middle;gradientColor=#DEDEDE;fillColor=#EDEDED;checked=0;spacing=5;checkedFill=#0085FC;checkedStroke=#ffffff;sketch=0;" parent="1" vertex="1">
          <mxGeometry x="40" y="1555" width="20" height="20" as="geometry" />
        </mxCell>
        <mxCell id="1pthjZ1_B0n-7u5q8_Vb-74" value="Don&#39;t know" style="text;html=1;align=left;verticalAlign=middle;whiteSpace=wrap;rounded=0;" parent="1" vertex="1">
          <mxGeometry x="80" y="1550" width="90" height="30" as="geometry" />
        </mxCell>
        <mxCell id="1pthjZ1_B0n-7u5q8_Vb-76" value="flood destination" style="text;html=1;align=left;verticalAlign=middle;whiteSpace=wrap;rounded=0;fontStyle=1;fontSize=20;" parent="1" vertex="1">
          <mxGeometry x="40" y="1240" width="405" height="30" as="geometry" />
        </mxCell>
        <mxCell id="1pthjZ1_B0n-7u5q8_Vb-77" value="" style="html=1;shadow=0;dashed=0;shape=mxgraph.bootstrap.checkbox2;labelPosition=right;verticalLabelPosition=middle;align=left;verticalAlign=middle;gradientColor=#DEDEDE;fillColor=#EDEDED;checked=0;spacing=5;checkedFill=#0085FC;checkedStroke=#ffffff;sketch=0;" parent="1" vertex="1">
          <mxGeometry x="80" y="1360" width="20" height="20" as="geometry" />
        </mxCell>
        <mxCell id="1pthjZ1_B0n-7u5q8_Vb-78" value="Where was it going?" style="text;html=1;align=left;verticalAlign=middle;whiteSpace=wrap;rounded=0;" parent="1" vertex="1">
          <mxGeometry x="80" y="1320" width="250" height="30" as="geometry" />
        </mxCell>
        <mxCell id="1pthjZ1_B0n-7u5q8_Vb-79" value="River" style="text;html=1;align=left;verticalAlign=middle;whiteSpace=wrap;rounded=0;" parent="1" vertex="1">
          <mxGeometry x="120" y="1355" width="90" height="30" as="geometry" />
        </mxCell>
        <mxCell id="1pthjZ1_B0n-7u5q8_Vb-80" value="" style="html=1;shadow=0;dashed=0;shape=mxgraph.bootstrap.checkbox2;labelPosition=right;verticalLabelPosition=middle;align=left;verticalAlign=middle;gradientColor=#DEDEDE;fillColor=#EDEDED;checked=0;spacing=5;checkedFill=#0085FC;checkedStroke=#ffffff;sketch=0;" parent="1" vertex="1">
          <mxGeometry x="80" y="1390" width="20" height="20" as="geometry" />
        </mxCell>
        <mxCell id="1pthjZ1_B0n-7u5q8_Vb-81" value="Ditches and drainage channel" style="text;html=1;align=left;verticalAlign=middle;whiteSpace=wrap;rounded=0;" parent="1" vertex="1">
          <mxGeometry x="120" y="1385" width="200" height="30" as="geometry" />
        </mxCell>
        <mxCell id="1pthjZ1_B0n-7u5q8_Vb-85" value="" style="html=1;shadow=0;dashed=0;shape=mxgraph.bootstrap.checkbox2;labelPosition=right;verticalLabelPosition=middle;align=left;verticalAlign=middle;gradientColor=#DEDEDE;fillColor=#EDEDED;checked=0;spacing=5;checkedFill=#0085FC;checkedStroke=#ffffff;sketch=0;" parent="1" vertex="1">
          <mxGeometry x="80" y="1420" width="20" height="20" as="geometry" />
        </mxCell>
        <mxCell id="1pthjZ1_B0n-7u5q8_Vb-86" value="Stream / Watercourse" style="text;html=1;align=left;verticalAlign=middle;whiteSpace=wrap;rounded=0;" parent="1" vertex="1">
          <mxGeometry x="120" y="1415" width="200" height="30" as="geometry" />
        </mxCell>
        <mxCell id="1pthjZ1_B0n-7u5q8_Vb-87" value="" style="html=1;shadow=0;dashed=0;shape=mxgraph.bootstrap.checkbox2;labelPosition=right;verticalLabelPosition=middle;align=left;verticalAlign=middle;gradientColor=#DEDEDE;fillColor=#EDEDED;checked=0;spacing=5;checkedFill=#0085FC;checkedStroke=#ffffff;sketch=0;" parent="1" vertex="1">
          <mxGeometry x="80" y="1450" width="20" height="20" as="geometry" />
        </mxCell>
        <mxCell id="1pthjZ1_B0n-7u5q8_Vb-88" value="The sea" style="text;html=1;align=left;verticalAlign=middle;whiteSpace=wrap;rounded=0;" parent="1" vertex="1">
          <mxGeometry x="120" y="1445" width="90" height="30" as="geometry" />
        </mxCell>
        <mxCell id="1pthjZ1_B0n-7u5q8_Vb-89" value="" style="html=1;shadow=0;dashed=0;shape=mxgraph.bootstrap.checkbox2;labelPosition=right;verticalLabelPosition=middle;align=left;verticalAlign=middle;gradientColor=#DEDEDE;fillColor=#EDEDED;checked=0;spacing=5;checkedFill=#0085FC;checkedStroke=#ffffff;sketch=0;" parent="1" vertex="1">
          <mxGeometry x="80" y="1480" width="20" height="20" as="geometry" />
        </mxCell>
        <mxCell id="1pthjZ1_B0n-7u5q8_Vb-90" value="Road drainage" style="text;html=1;align=left;verticalAlign=middle;whiteSpace=wrap;rounded=0;" parent="1" vertex="1">
          <mxGeometry x="120" y="1475" width="90" height="30" as="geometry" />
        </mxCell>
        <mxCell id="1pthjZ1_B0n-7u5q8_Vb-93" value="" style="html=1;shadow=0;dashed=0;shape=mxgraph.bootstrap.radioButton2;labelPosition=right;verticalLabelPosition=middle;align=left;verticalAlign=middle;gradientColor=#DEDEDE;fillColor=#EDEDED;checked=0;spacing=5;checkedFill=#0085FC;checkedStroke=#ffffff;sketch=0;" parent="1" vertex="1">
          <mxGeometry x="40" y="1725" width="20" height="20" as="geometry" />
        </mxCell>
        <mxCell id="1pthjZ1_B0n-7u5q8_Vb-94" value="No" style="text;html=1;align=left;verticalAlign=middle;whiteSpace=wrap;rounded=0;" parent="1" vertex="1">
          <mxGeometry x="80" y="1820" width="40" height="30" as="geometry" />
        </mxCell>
        <mxCell id="1pthjZ1_B0n-7u5q8_Vb-95" value="" style="html=1;shadow=0;dashed=0;shape=mxgraph.bootstrap.radioButton2;labelPosition=right;verticalLabelPosition=middle;align=left;verticalAlign=middle;gradientColor=#DEDEDE;fillColor=#EDEDED;checked=0;spacing=5;checkedFill=#0085FC;checkedStroke=#ffffff;sketch=0;direction=south;" parent="1" vertex="1">
          <mxGeometry x="40" y="1825" width="20" height="20" as="geometry" />
        </mxCell>
        <mxCell id="1pthjZ1_B0n-7u5q8_Vb-96" value="Yes" style="text;html=1;align=left;verticalAlign=middle;whiteSpace=wrap;rounded=0;" parent="1" vertex="1">
          <mxGeometry x="80" y="1720" width="50" height="30" as="geometry" />
        </mxCell>
        <mxCell id="1pthjZ1_B0n-7u5q8_Vb-97" value="" style="rounded=1;whiteSpace=wrap;html=1;" parent="1" vertex="1">
          <mxGeometry x="80" y="1775" width="110" height="30" as="geometry" />
        </mxCell>
        <mxCell id="1pthjZ1_B0n-7u5q8_Vb-98" value="vehicles" style="text;html=1;align=left;verticalAlign=middle;whiteSpace=wrap;rounded=0;fontStyle=1;fontSize=20;" parent="1" vertex="1">
          <mxGeometry x="40" y="1640" width="405" height="30" as="geometry" />
        </mxCell>
        <mxCell id="1pthjZ1_B0n-7u5q8_Vb-102" value="Were any vehicles damaged as a result of the flooding?" style="text;html=1;align=left;verticalAlign=middle;whiteSpace=wrap;rounded=0;" parent="1" vertex="1">
          <mxGeometry x="40" y="1680" width="630" height="30" as="geometry" />
        </mxCell>
        <mxCell id="1pthjZ1_B0n-7u5q8_Vb-103" value="" style="html=1;shadow=0;dashed=0;shape=mxgraph.bootstrap.radioButton2;labelPosition=right;verticalLabelPosition=middle;align=left;verticalAlign=middle;gradientColor=#DEDEDE;fillColor=#EDEDED;checked=0;spacing=5;checkedFill=#0085FC;checkedStroke=#ffffff;sketch=0;" parent="1" vertex="1">
          <mxGeometry x="40" y="1860" width="20" height="20" as="geometry" />
        </mxCell>
        <mxCell id="1pthjZ1_B0n-7u5q8_Vb-104" value="Don&#39;t know" style="text;html=1;align=left;verticalAlign=middle;whiteSpace=wrap;rounded=0;" parent="1" vertex="1">
          <mxGeometry x="80" y="1855" width="90" height="30" as="geometry" />
        </mxCell>
        <mxCell id="1pthjZ1_B0n-7u5q8_Vb-105" value="How many?" style="text;html=1;align=left;verticalAlign=middle;whiteSpace=wrap;rounded=0;" parent="1" vertex="1">
          <mxGeometry x="78.51" y="1750" width="111.49" height="30" as="geometry" />
        </mxCell>
        <mxCell id="1pthjZ1_B0n-7u5q8_Vb-126" value="Was parts of the community restricted by the flooding?" style="text;html=1;align=left;verticalAlign=middle;whiteSpace=wrap;rounded=0;" parent="1" vertex="1">
          <mxGeometry x="40" y="1950" width="630" height="30" as="geometry" />
        </mxCell>
        <mxCell id="1pthjZ1_B0n-7u5q8_Vb-131" value="community" style="text;html=1;align=left;verticalAlign=middle;whiteSpace=wrap;rounded=0;fontStyle=1;fontSize=20;" parent="1" vertex="1">
          <mxGeometry x="40" y="1920" width="405" height="30" as="geometry" />
        </mxCell>
        <mxCell id="1pthjZ1_B0n-7u5q8_Vb-132" value="" style="html=1;shadow=0;dashed=0;shape=mxgraph.bootstrap.checkbox2;labelPosition=right;verticalLabelPosition=middle;align=left;verticalAlign=middle;gradientColor=#DEDEDE;fillColor=#EDEDED;checked=0;spacing=5;checkedFill=#0085FC;checkedStroke=#ffffff;sketch=0;" parent="1" vertex="1">
          <mxGeometry x="40" y="1995" width="20" height="20" as="geometry" />
        </mxCell>
        <mxCell id="1pthjZ1_B0n-7u5q8_Vb-133" value="&lt;div&gt;&lt;span style=&quot;background-color: initial;&quot;&gt;All road access blocked&lt;/span&gt;&lt;/div&gt;" style="text;html=1;align=left;verticalAlign=middle;whiteSpace=wrap;rounded=0;" parent="1" vertex="1">
          <mxGeometry x="80" y="1990" width="200" height="30" as="geometry" />
        </mxCell>
        <mxCell id="1pthjZ1_B0n-7u5q8_Vb-134" value="" style="html=1;shadow=0;dashed=0;shape=mxgraph.bootstrap.checkbox2;labelPosition=right;verticalLabelPosition=middle;align=left;verticalAlign=middle;gradientColor=#DEDEDE;fillColor=#EDEDED;checked=0;spacing=5;checkedFill=#0085FC;checkedStroke=#ffffff;sketch=0;" parent="1" vertex="1">
          <mxGeometry x="40" y="2025" width="20" height="20" as="geometry" />
        </mxCell>
        <mxCell id="1pthjZ1_B0n-7u5q8_Vb-135" value="Some road access blocked" style="text;html=1;align=left;verticalAlign=middle;whiteSpace=wrap;rounded=0;" parent="1" vertex="1">
          <mxGeometry x="80" y="2020" width="200" height="30" as="geometry" />
        </mxCell>
        <mxCell id="1pthjZ1_B0n-7u5q8_Vb-136" value="" style="html=1;shadow=0;dashed=0;shape=mxgraph.bootstrap.checkbox2;labelPosition=right;verticalLabelPosition=middle;align=left;verticalAlign=middle;gradientColor=#DEDEDE;fillColor=#EDEDED;checked=0;spacing=5;checkedFill=#0085FC;checkedStroke=#ffffff;sketch=0;" parent="1" vertex="1">
          <mxGeometry x="40" y="2055" width="20" height="20" as="geometry" />
        </mxCell>
        <mxCell id="1pthjZ1_B0n-7u5q8_Vb-137" value="Public transport was disrupted" style="text;html=1;align=left;verticalAlign=middle;whiteSpace=wrap;rounded=0;" parent="1" vertex="1">
          <mxGeometry x="80" y="2050" width="200" height="30" as="geometry" />
        </mxCell>
        <mxCell id="1pthjZ1_B0n-7u5q8_Vb-138" value="" style="html=1;shadow=0;dashed=0;shape=mxgraph.bootstrap.checkbox2;labelPosition=right;verticalLabelPosition=middle;align=left;verticalAlign=middle;gradientColor=#DEDEDE;fillColor=#EDEDED;checked=0;spacing=5;checkedFill=#0085FC;checkedStroke=#ffffff;sketch=0;" parent="1" vertex="1">
          <mxGeometry x="40" y="2085" width="20" height="20" as="geometry" />
        </mxCell>
        <mxCell id="1pthjZ1_B0n-7u5q8_Vb-139" value="No access to place of work" style="text;html=1;align=left;verticalAlign=middle;whiteSpace=wrap;rounded=0;" parent="1" vertex="1">
          <mxGeometry x="80" y="2080" width="160" height="30" as="geometry" />
        </mxCell>
        <mxCell id="1pthjZ1_B0n-7u5q8_Vb-140" value="" style="html=1;shadow=0;dashed=0;shape=mxgraph.bootstrap.checkbox2;labelPosition=right;verticalLabelPosition=middle;align=left;verticalAlign=middle;gradientColor=#DEDEDE;fillColor=#EDEDED;checked=0;spacing=5;checkedFill=#0085FC;checkedStroke=#ffffff;sketch=0;" parent="1" vertex="1">
          <mxGeometry x="40" y="2115" width="20" height="20" as="geometry" />
        </mxCell>
        <mxCell id="1pthjZ1_B0n-7u5q8_Vb-141" value="Local shop(s) were closed" style="text;html=1;align=left;verticalAlign=middle;whiteSpace=wrap;rounded=0;" parent="1" vertex="1">
          <mxGeometry x="80" y="2110" width="160" height="30" as="geometry" />
        </mxCell>
        <mxCell id="1pthjZ1_B0n-7u5q8_Vb-143" value="" style="html=1;shadow=0;dashed=0;shape=mxgraph.bootstrap.checkbox2;labelPosition=right;verticalLabelPosition=middle;align=left;verticalAlign=middle;gradientColor=#DEDEDE;fillColor=#EDEDED;checked=0;spacing=5;checkedFill=#0085FC;checkedStroke=#ffffff;sketch=0;" parent="1" vertex="1">
          <mxGeometry x="40" y="2175" width="20" height="20" as="geometry" />
        </mxCell>
        <mxCell id="1pthjZ1_B0n-7u5q8_Vb-144" value="Not sure" style="text;html=1;align=left;verticalAlign=middle;whiteSpace=wrap;rounded=0;" parent="1" vertex="1">
          <mxGeometry x="80" y="2170" width="70" height="30" as="geometry" />
        </mxCell>
        <mxCell id="1pthjZ1_B0n-7u5q8_Vb-145" value="or" style="text;html=1;align=left;verticalAlign=middle;whiteSpace=wrap;rounded=0;" parent="1" vertex="1">
          <mxGeometry x="38.51" y="2140" width="40" height="30" as="geometry" />
        </mxCell>
        <mxCell id="1pthjZ1_B0n-7u5q8_Vb-146" value="" style="html=1;shadow=0;dashed=0;shape=mxgraph.bootstrap.radioButton2;labelPosition=right;verticalLabelPosition=middle;align=left;verticalAlign=middle;gradientColor=#DEDEDE;fillColor=#EDEDED;checked=0;spacing=5;checkedFill=#0085FC;checkedStroke=#ffffff;sketch=0;" parent="1" vertex="1">
          <mxGeometry x="38.51" y="2300" width="20" height="20" as="geometry" />
        </mxCell>
        <mxCell id="1pthjZ1_B0n-7u5q8_Vb-147" value="No" style="text;html=1;align=left;verticalAlign=middle;whiteSpace=wrap;rounded=0;" parent="1" vertex="1">
          <mxGeometry x="78.51" y="2420" width="40" height="30" as="geometry" />
        </mxCell>
        <mxCell id="1pthjZ1_B0n-7u5q8_Vb-148" value="Do you know of any problems, blockages, or recent repair works?" style="text;html=1;align=left;verticalAlign=middle;whiteSpace=wrap;rounded=0;" parent="1" vertex="1">
          <mxGeometry x="38.51" y="2270" width="411.49" height="30" as="geometry" />
        </mxCell>
        <mxCell id="1pthjZ1_B0n-7u5q8_Vb-149" value="" style="html=1;shadow=0;dashed=0;shape=mxgraph.bootstrap.radioButton2;labelPosition=right;verticalLabelPosition=middle;align=left;verticalAlign=middle;gradientColor=#DEDEDE;fillColor=#EDEDED;checked=0;spacing=5;checkedFill=#0085FC;checkedStroke=#ffffff;sketch=0;direction=south;" parent="1" vertex="1">
          <mxGeometry x="38.51" y="2425" width="20" height="20" as="geometry" />
        </mxCell>
        <mxCell id="1pthjZ1_B0n-7u5q8_Vb-150" value="Yes" style="text;html=1;align=left;verticalAlign=middle;whiteSpace=wrap;rounded=0;" parent="1" vertex="1">
          <mxGeometry x="78.51" y="2295" width="50" height="30" as="geometry" />
        </mxCell>
        <mxCell id="1pthjZ1_B0n-7u5q8_Vb-153" value="Describe the problems, blockages, or recent repair works" style="text;html=1;align=left;verticalAlign=middle;whiteSpace=wrap;rounded=0;" parent="1" vertex="1">
          <mxGeometry x="78.51" y="2325" width="630" height="30" as="geometry" />
        </mxCell>
        <mxCell id="1pthjZ1_B0n-7u5q8_Vb-154" value="" style="rounded=1;whiteSpace=wrap;html=1;" parent="1" vertex="1">
          <mxGeometry x="78.51" y="2350" width="510" height="60" as="geometry" />
        </mxCell>
        <mxCell id="1pthjZ1_B0n-7u5q8_Vb-155" value="blockages" style="text;html=1;align=left;verticalAlign=middle;whiteSpace=wrap;rounded=0;fontStyle=1;fontSize=20;" parent="1" vertex="1">
          <mxGeometry x="38.51" y="2240" width="405" height="30" as="geometry" />
        </mxCell>
        <mxCell id="jgn_dsjkAKTyqwRpo_yt-1" value="" style="html=1;shadow=0;dashed=0;shape=mxgraph.bootstrap.radioButton2;labelPosition=right;verticalLabelPosition=middle;align=left;verticalAlign=middle;gradientColor=#DEDEDE;fillColor=#EDEDED;checked=0;spacing=5;checkedFill=#0085FC;checkedStroke=#ffffff;sketch=0;" parent="1" vertex="1">
          <mxGeometry x="40" y="2565" width="20" height="20" as="geometry" />
        </mxCell>
        <mxCell id="jgn_dsjkAKTyqwRpo_yt-2" value="No" style="text;html=1;align=left;verticalAlign=middle;whiteSpace=wrap;rounded=0;" parent="1" vertex="1">
          <mxGeometry x="80" y="2600" width="40" height="30" as="geometry" />
        </mxCell>
        <mxCell id="jgn_dsjkAKTyqwRpo_yt-3" value="" style="html=1;shadow=0;dashed=0;shape=mxgraph.bootstrap.radioButton2;labelPosition=right;verticalLabelPosition=middle;align=left;verticalAlign=middle;gradientColor=#DEDEDE;fillColor=#EDEDED;checked=0;spacing=5;checkedFill=#0085FC;checkedStroke=#ffffff;sketch=0;direction=south;" parent="1" vertex="1">
          <mxGeometry x="40" y="2605" width="20" height="20" as="geometry" />
        </mxCell>
        <mxCell id="jgn_dsjkAKTyqwRpo_yt-4" value="Yes" style="text;html=1;align=left;verticalAlign=middle;whiteSpace=wrap;rounded=0;" parent="1" vertex="1">
          <mxGeometry x="80" y="2560" width="50" height="30" as="geometry" />
        </mxCell>
        <mxCell id="jgn_dsjkAKTyqwRpo_yt-7" value="" style="html=1;shadow=0;dashed=0;shape=mxgraph.bootstrap.checkbox2;labelPosition=right;verticalLabelPosition=middle;align=left;verticalAlign=middle;gradientColor=#DEDEDE;fillColor=#EDEDED;checked=0;spacing=5;checkedFill=#0085FC;checkedStroke=#ffffff;sketch=0;" parent="1" vertex="1">
          <mxGeometry x="40" y="2735" width="20" height="20" as="geometry" />
        </mxCell>
        <mxCell id="jgn_dsjkAKTyqwRpo_yt-9" value="Floodline" style="text;html=1;align=left;verticalAlign=middle;whiteSpace=wrap;rounded=0;" parent="1" vertex="1">
          <mxGeometry x="80" y="2730" width="90" height="30" as="geometry" />
        </mxCell>
        <mxCell id="jgn_dsjkAKTyqwRpo_yt-10" value="" style="html=1;shadow=0;dashed=0;shape=mxgraph.bootstrap.checkbox2;labelPosition=right;verticalLabelPosition=middle;align=left;verticalAlign=middle;gradientColor=#DEDEDE;fillColor=#EDEDED;checked=0;spacing=5;checkedFill=#0085FC;checkedStroke=#ffffff;sketch=0;" parent="1" vertex="1">
          <mxGeometry x="40" y="2765" width="20" height="20" as="geometry" />
        </mxCell>
        <mxCell id="jgn_dsjkAKTyqwRpo_yt-11" value="Television" style="text;html=1;align=left;verticalAlign=middle;whiteSpace=wrap;rounded=0;" parent="1" vertex="1">
          <mxGeometry x="80" y="2760" width="200" height="30" as="geometry" />
        </mxCell>
        <mxCell id="jgn_dsjkAKTyqwRpo_yt-12" value="" style="html=1;shadow=0;dashed=0;shape=mxgraph.bootstrap.checkbox2;labelPosition=right;verticalLabelPosition=middle;align=left;verticalAlign=middle;gradientColor=#DEDEDE;fillColor=#EDEDED;checked=0;spacing=5;checkedFill=#0085FC;checkedStroke=#ffffff;sketch=0;" parent="1" vertex="1">
          <mxGeometry x="40" y="2795" width="20" height="20" as="geometry" />
        </mxCell>
        <mxCell id="jgn_dsjkAKTyqwRpo_yt-13" value="Radio" style="text;html=1;align=left;verticalAlign=middle;whiteSpace=wrap;rounded=0;" parent="1" vertex="1">
          <mxGeometry x="80" y="2790" width="200" height="30" as="geometry" />
        </mxCell>
        <mxCell id="jgn_dsjkAKTyqwRpo_yt-14" value="" style="html=1;shadow=0;dashed=0;shape=mxgraph.bootstrap.checkbox2;labelPosition=right;verticalLabelPosition=middle;align=left;verticalAlign=middle;gradientColor=#DEDEDE;fillColor=#EDEDED;checked=0;spacing=5;checkedFill=#0085FC;checkedStroke=#ffffff;sketch=0;" parent="1" vertex="1">
          <mxGeometry x="40" y="2825" width="20" height="20" as="geometry" />
        </mxCell>
        <mxCell id="jgn_dsjkAKTyqwRpo_yt-15" value="Social media/Internet" style="text;html=1;align=left;verticalAlign=middle;whiteSpace=wrap;rounded=0;" parent="1" vertex="1">
          <mxGeometry x="80" y="2820" width="180" height="30" as="geometry" />
        </mxCell>
        <mxCell id="jgn_dsjkAKTyqwRpo_yt-16" value="" style="html=1;shadow=0;dashed=0;shape=mxgraph.bootstrap.checkbox2;labelPosition=right;verticalLabelPosition=middle;align=left;verticalAlign=middle;gradientColor=#DEDEDE;fillColor=#EDEDED;checked=0;spacing=5;checkedFill=#0085FC;checkedStroke=#ffffff;sketch=0;" parent="1" vertex="1">
          <mxGeometry x="40" y="2855" width="20" height="20" as="geometry" />
        </mxCell>
        <mxCell id="jgn_dsjkAKTyqwRpo_yt-17" value="Flood warden/Volunteer" style="text;html=1;align=left;verticalAlign=middle;whiteSpace=wrap;rounded=0;" parent="1" vertex="1">
          <mxGeometry x="80" y="2850" width="160" height="30" as="geometry" />
        </mxCell>
        <mxCell id="jgn_dsjkAKTyqwRpo_yt-18" value="warnings" style="text;html=1;align=left;verticalAlign=middle;whiteSpace=wrap;rounded=0;fontStyle=1;fontSize=20;" parent="1" vertex="1">
          <mxGeometry x="38.51" y="2490" width="405" height="30" as="geometry" />
        </mxCell>
        <mxCell id="jgn_dsjkAKTyqwRpo_yt-19" value="Did you receive any warnings?" style="text;html=1;align=left;verticalAlign=middle;whiteSpace=wrap;rounded=0;" parent="1" vertex="1">
          <mxGeometry x="40" y="2690" width="510" height="30" as="geometry" />
        </mxCell>
        <mxCell id="jgn_dsjkAKTyqwRpo_yt-35" value="Are you registered to receive floodline warnings from the Environment Agency?" style="text;html=1;align=left;verticalAlign=middle;whiteSpace=wrap;rounded=0;" parent="1" vertex="1">
          <mxGeometry x="38.51" y="2530" width="510" height="30" as="geometry" />
        </mxCell>
        <mxCell id="jgn_dsjkAKTyqwRpo_yt-36" value="warnings received" style="text;html=1;align=left;verticalAlign=middle;whiteSpace=wrap;rounded=0;fontStyle=1;fontSize=20;" parent="1" vertex="1">
          <mxGeometry x="40" y="2650" width="405" height="30" as="geometry" />
        </mxCell>
        <mxCell id="jgn_dsjkAKTyqwRpo_yt-40" value="" style="html=1;shadow=0;dashed=0;shape=mxgraph.bootstrap.checkbox2;labelPosition=right;verticalLabelPosition=middle;align=left;verticalAlign=middle;gradientColor=#DEDEDE;fillColor=#EDEDED;checked=0;spacing=5;checkedFill=#0085FC;checkedStroke=#ffffff;sketch=0;" parent="1" vertex="1">
          <mxGeometry x="40" y="2885" width="20" height="20" as="geometry" />
        </mxCell>
        <mxCell id="jgn_dsjkAKTyqwRpo_yt-41" value="Neighbours" style="text;html=1;align=left;verticalAlign=middle;whiteSpace=wrap;rounded=0;" parent="1" vertex="1">
          <mxGeometry x="80" y="2880" width="90" height="30" as="geometry" />
        </mxCell>
        <mxCell id="jgn_dsjkAKTyqwRpo_yt-44" value="" style="html=1;shadow=0;dashed=0;shape=mxgraph.bootstrap.checkbox2;labelPosition=right;verticalLabelPosition=middle;align=left;verticalAlign=middle;gradientColor=#DEDEDE;fillColor=#EDEDED;checked=0;spacing=5;checkedFill=#0085FC;checkedStroke=#ffffff;sketch=0;" parent="1" vertex="1">
          <mxGeometry x="40" y="2945" width="20" height="20" as="geometry" />
        </mxCell>
        <mxCell id="jgn_dsjkAKTyqwRpo_yt-45" value="I did not get any warnings" style="text;html=1;align=left;verticalAlign=middle;whiteSpace=wrap;rounded=0;" parent="1" vertex="1">
          <mxGeometry x="80.74000000000001" y="3065" width="150" height="30" as="geometry" />
        </mxCell>
        <mxCell id="jgn_dsjkAKTyqwRpo_yt-46" value="or" style="text;html=1;align=left;verticalAlign=middle;whiteSpace=wrap;rounded=0;" parent="1" vertex="1">
          <mxGeometry x="38.51" y="2910" width="40" height="30" as="geometry" />
        </mxCell>
        <mxCell id="jgn_dsjkAKTyqwRpo_yt-47" value="" style="html=1;shadow=0;dashed=0;shape=mxgraph.bootstrap.checkbox2;labelPosition=right;verticalLabelPosition=middle;align=left;verticalAlign=middle;gradientColor=#DEDEDE;fillColor=#EDEDED;checked=0;spacing=5;checkedFill=#0085FC;checkedStroke=#ffffff;sketch=0;" parent="1" vertex="1">
          <mxGeometry x="40" y="3070" width="20" height="20" as="geometry" />
        </mxCell>
        <mxCell id="jgn_dsjkAKTyqwRpo_yt-48" value="Other" style="text;html=1;align=left;verticalAlign=middle;whiteSpace=wrap;rounded=0;" parent="1" vertex="1">
          <mxGeometry x="80" y="2940" width="150" height="30" as="geometry" />
        </mxCell>
        <mxCell id="jgn_dsjkAKTyqwRpo_yt-49" value="or" style="text;html=1;align=left;verticalAlign=middle;whiteSpace=wrap;rounded=0;" parent="1" vertex="1">
          <mxGeometry x="40.74" y="3030" width="40" height="30" as="geometry" />
        </mxCell>
        <mxCell id="jgn_dsjkAKTyqwRpo_yt-50" value="" style="rounded=1;whiteSpace=wrap;html=1;" parent="1" vertex="1">
          <mxGeometry x="80.74" y="2990" width="479.26" height="30" as="geometry" />
        </mxCell>
        <mxCell id="jgn_dsjkAKTyqwRpo_yt-51" value="Where from?" style="text;html=1;align=left;verticalAlign=middle;whiteSpace=wrap;rounded=0;" parent="1" vertex="1">
          <mxGeometry x="79.25" y="2965" width="111.49" height="30" as="geometry" />
        </mxCell>
        <mxCell id="jgn_dsjkAKTyqwRpo_yt-52" value="" style="html=1;shadow=0;dashed=0;shape=mxgraph.bootstrap.checkbox2;labelPosition=right;verticalLabelPosition=middle;align=left;verticalAlign=middle;gradientColor=#DEDEDE;fillColor=#EDEDED;checked=0;spacing=5;checkedFill=#0085FC;checkedStroke=#ffffff;sketch=0;" parent="1" vertex="1">
          <mxGeometry x="40" y="3220" width="20" height="20" as="geometry" />
        </mxCell>
        <mxCell id="jgn_dsjkAKTyqwRpo_yt-53" value="Sandbags" style="text;html=1;align=left;verticalAlign=middle;whiteSpace=wrap;rounded=0;" parent="1" vertex="1">
          <mxGeometry x="80" y="3215" width="90" height="30" as="geometry" />
        </mxCell>
        <mxCell id="jgn_dsjkAKTyqwRpo_yt-54" value="" style="html=1;shadow=0;dashed=0;shape=mxgraph.bootstrap.checkbox2;labelPosition=right;verticalLabelPosition=middle;align=left;verticalAlign=middle;gradientColor=#DEDEDE;fillColor=#EDEDED;checked=0;spacing=5;checkedFill=#0085FC;checkedStroke=#ffffff;sketch=0;" parent="1" vertex="1">
          <mxGeometry x="40" y="3250" width="20" height="20" as="geometry" />
        </mxCell>
        <mxCell id="jgn_dsjkAKTyqwRpo_yt-55" value="Sandless sandbag" style="text;html=1;align=left;verticalAlign=middle;whiteSpace=wrap;rounded=0;" parent="1" vertex="1">
          <mxGeometry x="80" y="3245" width="200" height="30" as="geometry" />
        </mxCell>
        <mxCell id="jgn_dsjkAKTyqwRpo_yt-56" value="" style="html=1;shadow=0;dashed=0;shape=mxgraph.bootstrap.checkbox2;labelPosition=right;verticalLabelPosition=middle;align=left;verticalAlign=middle;gradientColor=#DEDEDE;fillColor=#EDEDED;checked=0;spacing=5;checkedFill=#0085FC;checkedStroke=#ffffff;sketch=0;" parent="1" vertex="1">
          <mxGeometry x="40" y="3280" width="20" height="20" as="geometry" />
        </mxCell>
        <mxCell id="jgn_dsjkAKTyqwRpo_yt-57" value="Flood boards/gate" style="text;html=1;align=left;verticalAlign=middle;whiteSpace=wrap;rounded=0;" parent="1" vertex="1">
          <mxGeometry x="80" y="3275" width="200" height="30" as="geometry" />
        </mxCell>
        <mxCell id="jgn_dsjkAKTyqwRpo_yt-58" value="" style="html=1;shadow=0;dashed=0;shape=mxgraph.bootstrap.checkbox2;labelPosition=right;verticalLabelPosition=middle;align=left;verticalAlign=middle;gradientColor=#DEDEDE;fillColor=#EDEDED;checked=0;spacing=5;checkedFill=#0085FC;checkedStroke=#ffffff;sketch=0;" parent="1" vertex="1">
          <mxGeometry x="40" y="3310" width="20" height="20" as="geometry" />
        </mxCell>
        <mxCell id="jgn_dsjkAKTyqwRpo_yt-59" value="Flood door" style="text;html=1;align=left;verticalAlign=middle;whiteSpace=wrap;rounded=0;" parent="1" vertex="1">
          <mxGeometry x="80" y="3305" width="180" height="30" as="geometry" />
        </mxCell>
        <mxCell id="jgn_dsjkAKTyqwRpo_yt-60" value="" style="html=1;shadow=0;dashed=0;shape=mxgraph.bootstrap.checkbox2;labelPosition=right;verticalLabelPosition=middle;align=left;verticalAlign=middle;gradientColor=#DEDEDE;fillColor=#EDEDED;checked=0;spacing=5;checkedFill=#0085FC;checkedStroke=#ffffff;sketch=0;" parent="1" vertex="1">
          <mxGeometry x="40" y="3340" width="20" height="20" as="geometry" />
        </mxCell>
        <mxCell id="jgn_dsjkAKTyqwRpo_yt-61" value="Back-flow valve" style="text;html=1;align=left;verticalAlign=middle;whiteSpace=wrap;rounded=0;" parent="1" vertex="1">
          <mxGeometry x="80" y="3335" width="160" height="30" as="geometry" />
        </mxCell>
        <mxCell id="jgn_dsjkAKTyqwRpo_yt-62" value="What actions did you take to deal with the flood?" style="text;html=1;align=left;verticalAlign=middle;whiteSpace=wrap;rounded=0;" parent="1" vertex="1">
          <mxGeometry x="42.23" y="3180" width="327.77" height="30" as="geometry" />
        </mxCell>
        <mxCell id="jgn_dsjkAKTyqwRpo_yt-63" value="actions taken" style="text;html=1;align=left;verticalAlign=middle;whiteSpace=wrap;rounded=0;fontStyle=1;fontSize=20;" parent="1" vertex="1">
          <mxGeometry x="42.230000000000004" y="3140" width="405" height="30" as="geometry" />
        </mxCell>
        <mxCell id="jgn_dsjkAKTyqwRpo_yt-64" value="" style="html=1;shadow=0;dashed=0;shape=mxgraph.bootstrap.checkbox2;labelPosition=right;verticalLabelPosition=middle;align=left;verticalAlign=middle;gradientColor=#DEDEDE;fillColor=#EDEDED;checked=0;spacing=5;checkedFill=#0085FC;checkedStroke=#ffffff;sketch=0;" parent="1" vertex="1">
          <mxGeometry x="40" y="3370" width="20" height="20" as="geometry" />
        </mxCell>
        <mxCell id="jgn_dsjkAKTyqwRpo_yt-65" value="Air brick cover" style="text;html=1;align=left;verticalAlign=middle;whiteSpace=wrap;rounded=0;" parent="1" vertex="1">
          <mxGeometry x="80" y="3365" width="90" height="30" as="geometry" />
        </mxCell>
        <mxCell id="jgn_dsjkAKTyqwRpo_yt-66" value="" style="html=1;shadow=0;dashed=0;shape=mxgraph.bootstrap.checkbox2;labelPosition=right;verticalLabelPosition=middle;align=left;verticalAlign=middle;gradientColor=#DEDEDE;fillColor=#EDEDED;checked=0;spacing=5;checkedFill=#0085FC;checkedStroke=#ffffff;sketch=0;" parent="1" vertex="1">
          <mxGeometry x="41.49000000000001" y="3520" width="20" height="20" as="geometry" />
        </mxCell>
        <mxCell id="jgn_dsjkAKTyqwRpo_yt-67" value="None" style="text;html=1;align=left;verticalAlign=middle;whiteSpace=wrap;rounded=0;" parent="1" vertex="1">
          <mxGeometry x="80.74000000000001" y="3635" width="150" height="30" as="geometry" />
        </mxCell>
        <mxCell id="jgn_dsjkAKTyqwRpo_yt-68" value="or" style="text;html=1;align=left;verticalAlign=middle;whiteSpace=wrap;rounded=0;" parent="1" vertex="1">
          <mxGeometry x="40" y="3485" width="40" height="30" as="geometry" />
        </mxCell>
        <mxCell id="jgn_dsjkAKTyqwRpo_yt-69" value="" style="html=1;shadow=0;dashed=0;shape=mxgraph.bootstrap.checkbox2;labelPosition=right;verticalLabelPosition=middle;align=left;verticalAlign=middle;gradientColor=#DEDEDE;fillColor=#EDEDED;checked=0;spacing=5;checkedFill=#0085FC;checkedStroke=#ffffff;sketch=0;" parent="1" vertex="1">
          <mxGeometry x="40" y="3640" width="20" height="20" as="geometry" />
        </mxCell>
        <mxCell id="jgn_dsjkAKTyqwRpo_yt-70" value="Other" style="text;html=1;align=left;verticalAlign=middle;whiteSpace=wrap;rounded=0;" parent="1" vertex="1">
          <mxGeometry x="81.49000000000001" y="3515" width="150" height="30" as="geometry" />
        </mxCell>
        <mxCell id="jgn_dsjkAKTyqwRpo_yt-71" value="or" style="text;html=1;align=left;verticalAlign=middle;whiteSpace=wrap;rounded=0;" parent="1" vertex="1">
          <mxGeometry x="40.74000000000001" y="3600" width="40" height="30" as="geometry" />
        </mxCell>
        <mxCell id="jgn_dsjkAKTyqwRpo_yt-72" value="" style="rounded=1;whiteSpace=wrap;html=1;" parent="1" vertex="1">
          <mxGeometry x="84.45999999999998" y="3570" width="479.26" height="30" as="geometry" />
        </mxCell>
        <mxCell id="jgn_dsjkAKTyqwRpo_yt-73" value="What action did you take?" style="text;html=1;align=left;verticalAlign=middle;whiteSpace=wrap;rounded=0;" parent="1" vertex="1">
          <mxGeometry x="82.97" y="3545" width="198.52" height="30" as="geometry" />
        </mxCell>
        <mxCell id="jgn_dsjkAKTyqwRpo_yt-74" value="" style="html=1;shadow=0;dashed=0;shape=mxgraph.bootstrap.checkbox2;labelPosition=right;verticalLabelPosition=middle;align=left;verticalAlign=middle;gradientColor=#DEDEDE;fillColor=#EDEDED;checked=0;spacing=5;checkedFill=#0085FC;checkedStroke=#ffffff;sketch=0;" parent="1" vertex="1">
          <mxGeometry x="40" y="3400" width="20" height="20" as="geometry" />
        </mxCell>
        <mxCell id="jgn_dsjkAKTyqwRpo_yt-75" value="Pumped water" style="text;html=1;align=left;verticalAlign=middle;whiteSpace=wrap;rounded=0;" parent="1" vertex="1">
          <mxGeometry x="80" y="3395" width="180" height="30" as="geometry" />
        </mxCell>
        <mxCell id="jgn_dsjkAKTyqwRpo_yt-76" value="" style="html=1;shadow=0;dashed=0;shape=mxgraph.bootstrap.checkbox2;labelPosition=right;verticalLabelPosition=middle;align=left;verticalAlign=middle;gradientColor=#DEDEDE;fillColor=#EDEDED;checked=0;spacing=5;checkedFill=#0085FC;checkedStroke=#ffffff;sketch=0;" parent="1" vertex="1">
          <mxGeometry x="40" y="3430" width="20" height="20" as="geometry" />
        </mxCell>
        <mxCell id="jgn_dsjkAKTyqwRpo_yt-77" value="Move valuables" style="text;html=1;align=left;verticalAlign=middle;whiteSpace=wrap;rounded=0;" parent="1" vertex="1">
          <mxGeometry x="80" y="3425" width="160" height="30" as="geometry" />
        </mxCell>
        <mxCell id="jgn_dsjkAKTyqwRpo_yt-78" value="" style="html=1;shadow=0;dashed=0;shape=mxgraph.bootstrap.checkbox2;labelPosition=right;verticalLabelPosition=middle;align=left;verticalAlign=middle;gradientColor=#DEDEDE;fillColor=#EDEDED;checked=0;spacing=5;checkedFill=#0085FC;checkedStroke=#ffffff;sketch=0;" parent="1" vertex="1">
          <mxGeometry x="40" y="3460" width="20" height="20" as="geometry" />
        </mxCell>
        <mxCell id="jgn_dsjkAKTyqwRpo_yt-79" value="Move car" style="text;html=1;align=left;verticalAlign=middle;whiteSpace=wrap;rounded=0;" parent="1" vertex="1">
          <mxGeometry x="80" y="3455" width="90" height="30" as="geometry" />
        </mxCell>
        <mxCell id="jgn_dsjkAKTyqwRpo_yt-80" value="" style="html=1;shadow=0;dashed=0;shape=mxgraph.bootstrap.checkbox2;labelPosition=right;verticalLabelPosition=middle;align=left;verticalAlign=middle;gradientColor=#DEDEDE;fillColor=#EDEDED;checked=0;spacing=5;checkedFill=#0085FC;checkedStroke=#ffffff;sketch=0;" parent="1" vertex="1">
          <mxGeometry x="40" y="3805" width="20" height="20" as="geometry" />
        </mxCell>
        <mxCell id="jgn_dsjkAKTyqwRpo_yt-81" value="Neighbours / family" style="text;html=1;align=left;verticalAlign=middle;whiteSpace=wrap;rounded=0;" parent="1" vertex="1">
          <mxGeometry x="80" y="3800" width="160" height="30" as="geometry" />
        </mxCell>
        <mxCell id="jgn_dsjkAKTyqwRpo_yt-82" value="" style="html=1;shadow=0;dashed=0;shape=mxgraph.bootstrap.checkbox2;labelPosition=right;verticalLabelPosition=middle;align=left;verticalAlign=middle;gradientColor=#DEDEDE;fillColor=#EDEDED;checked=0;spacing=5;checkedFill=#0085FC;checkedStroke=#ffffff;sketch=0;" parent="1" vertex="1">
          <mxGeometry x="40" y="3835" width="20" height="20" as="geometry" />
        </mxCell>
        <mxCell id="jgn_dsjkAKTyqwRpo_yt-83" value="Wardens / volunteers" style="text;html=1;align=left;verticalAlign=middle;whiteSpace=wrap;rounded=0;" parent="1" vertex="1">
          <mxGeometry x="80" y="3830" width="200" height="30" as="geometry" />
        </mxCell>
        <mxCell id="jgn_dsjkAKTyqwRpo_yt-84" value="" style="html=1;shadow=0;dashed=0;shape=mxgraph.bootstrap.checkbox2;labelPosition=right;verticalLabelPosition=middle;align=left;verticalAlign=middle;gradientColor=#DEDEDE;fillColor=#EDEDED;checked=0;spacing=5;checkedFill=#0085FC;checkedStroke=#ffffff;sketch=0;" parent="1" vertex="1">
          <mxGeometry x="40" y="3865" width="20" height="20" as="geometry" />
        </mxCell>
        <mxCell id="jgn_dsjkAKTyqwRpo_yt-85" value="Fire and rescue / Police" style="text;html=1;align=left;verticalAlign=middle;whiteSpace=wrap;rounded=0;" parent="1" vertex="1">
          <mxGeometry x="80" y="3860" width="200" height="30" as="geometry" />
        </mxCell>
        <mxCell id="jgn_dsjkAKTyqwRpo_yt-86" value="" style="html=1;shadow=0;dashed=0;shape=mxgraph.bootstrap.checkbox2;labelPosition=right;verticalLabelPosition=middle;align=left;verticalAlign=middle;gradientColor=#DEDEDE;fillColor=#EDEDED;checked=0;spacing=5;checkedFill=#0085FC;checkedStroke=#ffffff;sketch=0;" parent="1" vertex="1">
          <mxGeometry x="40" y="3895" width="20" height="20" as="geometry" />
        </mxCell>
        <mxCell id="jgn_dsjkAKTyqwRpo_yt-87" value="Environment Agency" style="text;html=1;align=left;verticalAlign=middle;whiteSpace=wrap;rounded=0;" parent="1" vertex="1">
          <mxGeometry x="80" y="3890" width="180" height="30" as="geometry" />
        </mxCell>
        <mxCell id="jgn_dsjkAKTyqwRpo_yt-88" value="" style="html=1;shadow=0;dashed=0;shape=mxgraph.bootstrap.checkbox2;labelPosition=right;verticalLabelPosition=middle;align=left;verticalAlign=middle;gradientColor=#DEDEDE;fillColor=#EDEDED;checked=0;spacing=5;checkedFill=#0085FC;checkedStroke=#ffffff;sketch=0;" parent="1" vertex="1">
          <mxGeometry x="40" y="3925" width="20" height="20" as="geometry" />
        </mxCell>
        <mxCell id="jgn_dsjkAKTyqwRpo_yt-89" value="Highways" style="text;html=1;align=left;verticalAlign=middle;whiteSpace=wrap;rounded=0;" parent="1" vertex="1">
          <mxGeometry x="80" y="3920" width="160" height="30" as="geometry" />
        </mxCell>
        <mxCell id="jgn_dsjkAKTyqwRpo_yt-90" value="help given" style="text;html=1;align=left;verticalAlign=middle;whiteSpace=wrap;rounded=0;fontStyle=1;fontSize=20;" parent="1" vertex="1">
          <mxGeometry x="40" y="3720" width="405" height="30" as="geometry" />
        </mxCell>
        <mxCell id="jgn_dsjkAKTyqwRpo_yt-91" value="" style="html=1;shadow=0;dashed=0;shape=mxgraph.bootstrap.checkbox2;labelPosition=right;verticalLabelPosition=middle;align=left;verticalAlign=middle;gradientColor=#DEDEDE;fillColor=#EDEDED;checked=0;spacing=5;checkedFill=#0085FC;checkedStroke=#ffffff;sketch=0;" parent="1" vertex="1">
          <mxGeometry x="40" y="3955" width="20" height="20" as="geometry" />
        </mxCell>
        <mxCell id="jgn_dsjkAKTyqwRpo_yt-92" value="Local Authority" style="text;html=1;align=left;verticalAlign=middle;whiteSpace=wrap;rounded=0;" parent="1" vertex="1">
          <mxGeometry x="80" y="3950" width="90" height="30" as="geometry" />
        </mxCell>
        <mxCell id="jgn_dsjkAKTyqwRpo_yt-93" value="" style="html=1;shadow=0;dashed=0;shape=mxgraph.bootstrap.checkbox2;labelPosition=right;verticalLabelPosition=middle;align=left;verticalAlign=middle;gradientColor=#DEDEDE;fillColor=#EDEDED;checked=0;spacing=5;checkedFill=#0085FC;checkedStroke=#ffffff;sketch=0;" parent="1" vertex="1">
          <mxGeometry x="40" y="3985" width="20" height="20" as="geometry" />
        </mxCell>
        <mxCell id="jgn_dsjkAKTyqwRpo_yt-94" value="Floodline" style="text;html=1;align=left;verticalAlign=middle;whiteSpace=wrap;rounded=0;" parent="1" vertex="1">
          <mxGeometry x="80" y="3980" width="180" height="30" as="geometry" />
        </mxCell>
        <mxCell id="jgn_dsjkAKTyqwRpo_yt-99" value="Did you receive any help?" style="text;html=1;align=left;verticalAlign=middle;whiteSpace=wrap;rounded=0;" parent="1" vertex="1">
          <mxGeometry x="41.12" y="3760" width="327.77" height="30" as="geometry" />
        </mxCell>
        <mxCell id="jgn_dsjkAKTyqwRpo_yt-103" value="No help" style="text;html=1;align=left;verticalAlign=middle;whiteSpace=wrap;rounded=0;" parent="1" vertex="1">
          <mxGeometry x="80.74000000000001" y="4055" width="150" height="30" as="geometry" />
        </mxCell>
        <mxCell id="jgn_dsjkAKTyqwRpo_yt-104" value="" style="html=1;shadow=0;dashed=0;shape=mxgraph.bootstrap.checkbox2;labelPosition=right;verticalLabelPosition=middle;align=left;verticalAlign=middle;gradientColor=#DEDEDE;fillColor=#EDEDED;checked=0;spacing=5;checkedFill=#0085FC;checkedStroke=#ffffff;sketch=0;" parent="1" vertex="1">
          <mxGeometry x="40" y="4060" width="20" height="20" as="geometry" />
        </mxCell>
        <mxCell id="jgn_dsjkAKTyqwRpo_yt-105" value="or" style="text;html=1;align=left;verticalAlign=middle;whiteSpace=wrap;rounded=0;" parent="1" vertex="1">
          <mxGeometry x="40.73999999999998" y="4020" width="40" height="30" as="geometry" />
        </mxCell>
        <mxCell id="dWufsQd8xCdSeTFVsPEn-1" value="" style="html=1;shadow=0;dashed=0;shape=mxgraph.bootstrap.radioButton2;labelPosition=right;verticalLabelPosition=middle;align=left;verticalAlign=middle;gradientColor=#DEDEDE;fillColor=#EDEDED;checked=0;spacing=5;checkedFill=#0085FC;checkedStroke=#ffffff;sketch=0;" vertex="1" parent="1">
          <mxGeometry x="40" y="4190" width="20" height="20" as="geometry" />
        </mxCell>
        <mxCell id="dWufsQd8xCdSeTFVsPEn-2" value="No" style="text;html=1;align=left;verticalAlign=middle;whiteSpace=wrap;rounded=0;" vertex="1" parent="1">
          <mxGeometry x="80" y="4215" width="80" height="30" as="geometry" />
        </mxCell>
        <mxCell id="dWufsQd8xCdSeTFVsPEn-3" value="Did the flood enter the property?" style="text;html=1;align=left;verticalAlign=middle;whiteSpace=wrap;rounded=0;" vertex="1" parent="1">
          <mxGeometry x="40" y="4160" width="220" height="30" as="geometry" />
        </mxCell>
        <mxCell id="dWufsQd8xCdSeTFVsPEn-4" value="" style="html=1;shadow=0;dashed=0;shape=mxgraph.bootstrap.radioButton2;labelPosition=right;verticalLabelPosition=middle;align=left;verticalAlign=middle;gradientColor=#DEDEDE;fillColor=#EDEDED;checked=0;spacing=5;checkedFill=#0085FC;checkedStroke=#ffffff;sketch=0;direction=south;" vertex="1" parent="1">
          <mxGeometry x="40" y="4220" width="20" height="20" as="geometry" />
        </mxCell>
        <mxCell id="dWufsQd8xCdSeTFVsPEn-5" value="Yes" style="text;html=1;align=left;verticalAlign=middle;whiteSpace=wrap;rounded=0;" vertex="1" parent="1">
          <mxGeometry x="80" y="4185" width="80" height="30" as="geometry" />
        </mxCell>
        <mxCell id="dWufsQd8xCdSeTFVsPEn-6" value="peak" style="text;html=1;align=left;verticalAlign=middle;whiteSpace=wrap;rounded=0;fontStyle=1;fontSize=20;" vertex="1" parent="1">
          <mxGeometry x="40" y="4120" width="405" height="30" as="geometry" />
        </mxCell>
        <mxCell id="dWufsQd8xCdSeTFVsPEn-7" value="" style="html=1;shadow=0;dashed=0;shape=mxgraph.bootstrap.radioButton2;labelPosition=right;verticalLabelPosition=middle;align=left;verticalAlign=middle;gradientColor=#DEDEDE;fillColor=#EDEDED;checked=0;spacing=5;checkedFill=#0085FC;checkedStroke=#ffffff;sketch=0;" vertex="1" parent="1">
          <mxGeometry x="41.489999999999995" y="4440" width="20" height="20" as="geometry" />
        </mxCell>
        <mxCell id="dWufsQd8xCdSeTFVsPEn-8" value="20 cm" style="text;html=1;align=left;verticalAlign=middle;whiteSpace=wrap;rounded=0;" vertex="1" parent="1">
          <mxGeometry x="81.49000000000001" y="4465" width="80" height="30" as="geometry" />
        </mxCell>
        <mxCell id="dWufsQd8xCdSeTFVsPEn-9" value="" style="html=1;shadow=0;dashed=0;shape=mxgraph.bootstrap.radioButton2;labelPosition=right;verticalLabelPosition=middle;align=left;verticalAlign=middle;gradientColor=#DEDEDE;fillColor=#EDEDED;checked=0;spacing=5;checkedFill=#0085FC;checkedStroke=#ffffff;sketch=0;direction=south;" vertex="1" parent="1">
          <mxGeometry x="41.489999999999995" y="4470" width="20" height="20" as="geometry" />
        </mxCell>
        <mxCell id="dWufsQd8xCdSeTFVsPEn-10" value="10 cm" style="text;html=1;align=left;verticalAlign=middle;whiteSpace=wrap;rounded=0;" vertex="1" parent="1">
          <mxGeometry x="81.49000000000001" y="4435" width="80" height="30" as="geometry" />
        </mxCell>
        <mxCell id="dWufsQd8xCdSeTFVsPEn-11" value="Roughly how deep is the flood?" style="text;html=1;align=left;verticalAlign=middle;whiteSpace=wrap;rounded=0;" vertex="1" parent="1">
          <mxGeometry x="44.46999999999999" y="4400" width="400" height="30" as="geometry" />
        </mxCell>
        <mxCell id="dWufsQd8xCdSeTFVsPEn-12" value="30 cm" style="text;html=1;align=left;verticalAlign=middle;whiteSpace=wrap;rounded=0;" vertex="1" parent="1">
          <mxGeometry x="81.49000000000001" y="4495" width="80" height="30" as="geometry" />
        </mxCell>
        <mxCell id="dWufsQd8xCdSeTFVsPEn-13" value="" style="html=1;shadow=0;dashed=0;shape=mxgraph.bootstrap.radioButton2;labelPosition=right;verticalLabelPosition=middle;align=left;verticalAlign=middle;gradientColor=#DEDEDE;fillColor=#EDEDED;checked=0;spacing=5;checkedFill=#0085FC;checkedStroke=#ffffff;sketch=0;direction=south;" vertex="1" parent="1">
          <mxGeometry x="41.489999999999995" y="4500" width="20" height="20" as="geometry" />
        </mxCell>
        <mxCell id="dWufsQd8xCdSeTFVsPEn-21" value="peak" style="text;html=1;align=left;verticalAlign=middle;whiteSpace=wrap;rounded=0;fontStyle=1;fontSize=20;" vertex="1" parent="1">
          <mxGeometry x="40" y="4280" width="405" height="30" as="geometry" />
        </mxCell>
        <mxCell id="dWufsQd8xCdSeTFVsPEn-22" value="" style="html=1;shadow=0;dashed=0;shape=mxgraph.bootstrap.radioButton2;labelPosition=right;verticalLabelPosition=middle;align=left;verticalAlign=middle;gradientColor=#DEDEDE;fillColor=#EDEDED;checked=0;spacing=5;checkedFill=#0085FC;checkedStroke=#ffffff;sketch=0;" vertex="1" parent="1">
          <mxGeometry x="41.489999999999995" y="4530" width="20" height="20" as="geometry" />
        </mxCell>
        <mxCell id="dWufsQd8xCdSeTFVsPEn-23" value="" style="html=1;shadow=0;dashed=0;shape=mxgraph.bootstrap.radioButton2;labelPosition=right;verticalLabelPosition=middle;align=left;verticalAlign=middle;gradientColor=#DEDEDE;fillColor=#EDEDED;checked=0;spacing=5;checkedFill=#0085FC;checkedStroke=#ffffff;sketch=0;direction=south;" vertex="1" parent="1">
          <mxGeometry x="41.489999999999995" y="4560" width="20" height="20" as="geometry" />
        </mxCell>
        <mxCell id="dWufsQd8xCdSeTFVsPEn-24" value="4&lt;span style=&quot;background-color: initial;&quot;&gt;0 cm&lt;/span&gt;" style="text;html=1;align=left;verticalAlign=middle;whiteSpace=wrap;rounded=0;" vertex="1" parent="1">
          <mxGeometry x="81.49000000000001" y="4525" width="80" height="30" as="geometry" />
        </mxCell>
        <mxCell id="dWufsQd8xCdSeTFVsPEn-25" value="60 cm" style="text;html=1;align=left;verticalAlign=middle;whiteSpace=wrap;rounded=0;" vertex="1" parent="1">
          <mxGeometry x="81.49000000000001" y="4585" width="80" height="30" as="geometry" />
        </mxCell>
        <mxCell id="dWufsQd8xCdSeTFVsPEn-26" value="" style="html=1;shadow=0;dashed=0;shape=mxgraph.bootstrap.radioButton2;labelPosition=right;verticalLabelPosition=middle;align=left;verticalAlign=middle;gradientColor=#DEDEDE;fillColor=#EDEDED;checked=0;spacing=5;checkedFill=#0085FC;checkedStroke=#ffffff;sketch=0;direction=south;" vertex="1" parent="1">
          <mxGeometry x="41.489999999999995" y="4590" width="20" height="20" as="geometry" />
        </mxCell>
        <mxCell id="dWufsQd8xCdSeTFVsPEn-27" value="50 cm" style="text;html=1;align=left;verticalAlign=middle;whiteSpace=wrap;rounded=0;" vertex="1" parent="1">
          <mxGeometry x="81.49000000000001" y="4555" width="80" height="30" as="geometry" />
        </mxCell>
        <mxCell id="dWufsQd8xCdSeTFVsPEn-29" value="8 inches" style="text;html=1;align=left;verticalAlign=middle;whiteSpace=wrap;rounded=0;" vertex="1" parent="1">
          <mxGeometry x="563.72" y="4450" width="80" height="30" as="geometry" />
        </mxCell>
        <mxCell id="dWufsQd8xCdSeTFVsPEn-30" value="4 inches" style="text;html=1;align=left;verticalAlign=middle;whiteSpace=wrap;rounded=0;" vertex="1" parent="1">
          <mxGeometry x="563.72" y="4420" width="80" height="30" as="geometry" />
        </mxCell>
        <mxCell id="dWufsQd8xCdSeTFVsPEn-31" value="12 inches" style="text;html=1;align=left;verticalAlign=middle;whiteSpace=wrap;rounded=0;" vertex="1" parent="1">
          <mxGeometry x="563.72" y="4480" width="80" height="30" as="geometry" />
        </mxCell>
        <mxCell id="dWufsQd8xCdSeTFVsPEn-32" value="16 inches" style="text;html=1;align=left;verticalAlign=middle;whiteSpace=wrap;rounded=0;" vertex="1" parent="1">
          <mxGeometry x="563.72" y="4510" width="80" height="30" as="geometry" />
        </mxCell>
        <mxCell id="dWufsQd8xCdSeTFVsPEn-33" value="24 inches" style="text;html=1;align=left;verticalAlign=middle;whiteSpace=wrap;rounded=0;" vertex="1" parent="1">
          <mxGeometry x="563.72" y="4570" width="80" height="30" as="geometry" />
        </mxCell>
        <mxCell id="dWufsQd8xCdSeTFVsPEn-34" value="20 inches" style="text;html=1;align=left;verticalAlign=middle;whiteSpace=wrap;rounded=0;" vertex="1" parent="1">
          <mxGeometry x="563.72" y="4540" width="80" height="30" as="geometry" />
        </mxCell>
        <mxCell id="dWufsQd8xCdSeTFVsPEn-35" value="" style="html=1;shadow=0;dashed=0;shape=mxgraph.bootstrap.radioButton2;labelPosition=right;verticalLabelPosition=middle;align=left;verticalAlign=middle;gradientColor=#DEDEDE;fillColor=#EDEDED;checked=1;spacing=5;checkedFill=#000;checkedStroke=#ffffff;sketch=0;" vertex="1" parent="1">
          <mxGeometry x="42.230000000000004" y="4350" width="20" height="20" as="geometry" />
        </mxCell>
        <mxCell id="dWufsQd8xCdSeTFVsPEn-36" value="Inches" style="text;html=1;align=left;verticalAlign=middle;whiteSpace=wrap;rounded=0;" vertex="1" parent="1">
          <mxGeometry x="204.26" y="4345" width="80" height="30" as="geometry" />
        </mxCell>
        <mxCell id="dWufsQd8xCdSeTFVsPEn-37" value="?" style="text;html=1;align=left;verticalAlign=middle;whiteSpace=wrap;rounded=0;" vertex="1" parent="1">
          <mxGeometry x="42.230000000000004" y="4320" width="220" height="30" as="geometry" />
        </mxCell>
        <mxCell id="dWufsQd8xCdSeTFVsPEn-38" value="" style="html=1;shadow=0;dashed=0;shape=mxgraph.bootstrap.radioButton2;labelPosition=right;verticalLabelPosition=middle;align=left;verticalAlign=middle;gradientColor=#DEDEDE;fillColor=#EDEDED;checked=0;spacing=5;checkedFill=#0085FC;checkedStroke=#ffffff;sketch=0;direction=south;" vertex="1" parent="1">
          <mxGeometry x="170" y="4350" width="20" height="20" as="geometry" />
        </mxCell>
        <mxCell id="dWufsQd8xCdSeTFVsPEn-39" value="Centimetre" style="text;html=1;align=left;verticalAlign=middle;whiteSpace=wrap;rounded=0;" vertex="1" parent="1">
          <mxGeometry x="78.51" y="4345" width="67.77" height="30" as="geometry" />
        </mxCell>
      </root>
    </mxGraphModel>
  </diagram>
</mxfile>
